<svg width="339" height="751" viewBox="0 0 339 751" fill="none" xmlns="http://www.w3.org/2000/svg">
<path d="M11.3235 192.873L50.0545 138.715L11.3235 83.9011H36.1048L62.5272 121.319L89.2778 83.9011H113.239L74.3434 138.059L113.239 192.873H88.6214L61.8707 155.291L34.956 192.873H11.3235Z" fill="#EBFF00"/>
<path d="M302.463 83.9011H323.962V192.873H180.854V83.9011H202.353V173.672H241.741V83.9011H263.24V173.672H302.463V83.9011Z" fill="#EBFF00"/>
<path d="M113.567 428.377H85.175L43.1617 385.215V428.377H21.6627V319.405H43.1617V363.552L86.4879 319.405H113.567L60.3937 373.891L113.567 428.377Z" fill="#EBFF00"/>
<path d="M256.183 376.189L285.559 319.405H307.222L264.717 402.775C259.356 413.169 254.815 420.062 251.095 423.454C247.375 426.736 241.577 428.377 233.699 428.377H219.749V409.176H231.894C235.176 409.176 237.692 408.574 239.443 407.37C241.303 406.167 242.889 404.143 244.202 401.298L245.515 398.344L204.815 319.405H226.806L256.183 376.189Z" fill="#EBFF00"/>
<path d="M104.049 649.604C93.4358 660.545 79.869 666.015 63.3482 666.015C46.8273 666.015 33.2605 660.545 22.6478 649.604C12.0351 638.663 6.72869 625.26 6.72869 609.396C6.72869 593.422 12.0351 580.019 22.6478 569.188C33.2605 558.247 46.8273 552.776 63.3482 552.776C79.869 552.776 93.4358 558.247 104.049 569.188C114.661 580.019 119.968 593.422 119.968 609.396C119.968 625.26 114.661 638.663 104.049 649.604ZM38.2387 635.982C44.9126 643.203 53.2825 646.814 63.3482 646.814C73.4138 646.814 81.7837 643.203 88.4577 635.982C95.1316 628.652 98.4686 619.79 98.4686 609.396C98.4686 598.893 95.1316 590.03 88.4577 582.809C81.7837 575.588 73.4138 571.978 63.3482 571.978C53.2825 571.978 44.9126 575.588 38.2387 582.809C31.5647 590.03 28.2277 598.893 28.2277 609.396C28.2277 619.79 31.5647 628.652 38.2387 635.982Z" fill="#EBFF00"/>
<path d="M245.023 552.776C261.216 552.776 274.618 558.137 285.231 568.86C295.953 579.472 301.314 592.984 301.314 609.396C301.314 625.807 295.953 639.374 285.231 650.096C274.618 660.709 261.216 666.015 245.023 666.015C233.425 666.015 223.36 663.171 214.826 657.481C206.401 651.683 199.946 643.75 195.46 633.685H218.436C225.001 642.438 233.863 646.814 245.023 646.814C253.557 646.814 260.887 644.298 267.014 639.265C273.251 634.122 277.135 627.339 278.666 618.914H226.478V599.713H278.666C277.244 591.289 273.415 584.56 267.178 579.527C260.942 574.494 253.557 571.978 245.023 571.978C233.973 571.978 225.11 576.354 218.436 585.107H195.46C199.946 575.041 206.401 567.164 214.826 561.474C223.36 555.676 233.425 552.776 245.023 552.776Z" fill="#EBFF00"/>
<line x1="63.1839" x2="63.1839" y2="37.7552" stroke="white" stroke-width="4.92343"/>
<line x1="65.6458" y1="235.504" x2="65.6458" y2="273.259" stroke="white" stroke-width="4.92343"/>
<line x1="65.6458" y1="476.752" x2="65.6458" y2="514.507" stroke="white" stroke-width="4.92343"/>
<line x1="65.6458" y1="712.257" x2="65.6458" y2="750.012" stroke="white" stroke-width="4.92343"/>
<line x1="252.736" x2="252.736" y2="37.7552" stroke="white" stroke-width="4.92343"/>
<line x1="255.198" y1="235.504" x2="255.198" y2="273.259" stroke="white" stroke-width="4.92343"/>
<line x1="255.198" y1="476.752" x2="255.198" y2="514.507" stroke="white" stroke-width="4.92343"/>
<line x1="255.198" y1="712.257" x2="255.198" y2="750.012" stroke="white" stroke-width="4.92343"/>
</svg>
