<svg width="1515" height="485" viewBox="0 0 1515 485" fill="none" xmlns="http://www.w3.org/2000/svg">
<path d="M241.094 422.623H4V372.629V279.267V75.0755V28.6957H712.282V4H1080.83V28.6957H1348.54V4H1468.58V28.6957H1496.19L1497.96 75.0755L1505.74 279.267L1509.27 371.919L1511.2 422.623H1373.85H1260.18H1199.61H1139.05C1140.65 402.545 1140.01 357.571 1124.65 338.296C1105.44 314.202 1043.61 308.781 1004.6 328.658C989.112 336.548 981.457 353.661 978.188 371.919C974.868 390.459 976.071 410.18 978.188 422.623H921.792H731.287H410.362V372.629C409.161 322.635 337.733 315.407 289.114 328.658C268.602 334.249 234.924 352.592 232.091 372.629C229.551 390.587 238.068 409.906 241.094 422.623Z" fill="black"/>
<path d="M410.362 372.629C409.161 322.635 337.733 315.407 289.114 328.658C268.602 334.249 234.924 352.592 232.091 372.629M410.362 372.629V422.623H731.287M410.362 372.629L978.188 371.919M1468.58 28.6957H1496.19L1497.96 75.0755M1468.58 28.6957V4H1348.54V28.6957M1468.58 28.6957H1348.54M1348.54 28.6957H1080.83M1080.83 28.6957V4H712.282V28.6957M1080.83 28.6957H712.282M712.282 28.6957H4V75.0755M4 372.629V422.623H241.094C238.068 409.906 229.551 390.587 232.091 372.629M4 372.629H232.091M4 372.629V279.267M978.188 371.919C974.868 390.459 976.071 410.18 978.188 422.623H921.792M978.188 371.919C981.457 353.661 989.112 336.548 1004.6 328.658C1043.61 308.781 1105.44 314.202 1124.65 338.296C1140.01 357.571 1140.65 402.545 1139.05 422.623H1199.61M1139.05 371.919H1509.27M1509.27 371.919L1511.2 422.623H1373.85M1509.27 371.919L1505.74 279.267M4 75.0755V279.267M4 75.0755H326.596H626.036H731.287H921.792H1199.61H1373.85H1497.96M1497.96 75.0755L1505.74 279.267M4 279.267H326.596H731.287V422.623M1505.74 279.267H1373.85V422.623M731.287 422.623H921.792M921.792 422.623V279.267H1199.61V422.623M1199.61 422.623H1260.18H1373.85" stroke="white" stroke-width="6.31508" stroke-linecap="round" stroke-linejoin="round"/>
<path d="M413.807 388.892C413.807 439.719 372.75 480.903 322.126 480.903C271.503 480.903 230.446 439.719 230.446 388.892C230.446 338.065 271.503 296.881 322.126 296.881C372.75 296.881 413.807 338.065 413.807 388.892Z" fill="black" stroke="white" stroke-width="6.31508"/>
<path d="M1156.9 388.892C1156.9 439.719 1115.85 480.903 1065.22 480.903C1014.6 480.903 973.542 439.719 973.542 388.892C973.542 338.065 1014.6 296.881 1065.22 296.881C1115.85 296.881 1156.9 338.065 1156.9 388.892Z" fill="black" stroke="white" stroke-width="6.31508"/>
</svg>
