<svg width="848" height="512" viewBox="0 0 848 512" fill="none" xmlns="http://www.w3.org/2000/svg">
<path d="M0 74.321C0 69.1732 4.17318 65 9.32105 65H243.679C248.827 65 253 69.1732 253 74.3211V191.5C253 196.648 248.827 200.821 243.679 200.821H9.32105C4.17318 200.821 0 196.648 0 191.5V74.321Z" fill="black"/>
<rect x="11.984" y="76.9845" width="229.032" height="111.706" rx="4.301" fill="black" stroke="white" stroke-width="7.98947"/>
<path d="M125.577 128.362H204.109L184.449 108.597H196.989L221.112 132.719L196.989 156.842H184.449L204.321 136.97H125.577V128.362Z" fill="white"/>
<path d="M47.7221 128.362H126.254V136.97H47.5096L67.3816 156.842H54.8421L30.7194 132.719L54.8421 108.597H67.3816L47.7221 128.362Z" fill="white"/>
<circle cx="129.5" cy="363.5" r="93.5" stroke="white" stroke-width="6"/>
<path d="M199.97 303.289L112.334 390.925H156.404L142.328 405H88.5404V351.212L102.616 337.137V381.374L190.419 293.738L199.97 303.289Z" fill="white"/>
<circle cx="432.5" cy="96.5" r="93.5" stroke="white" stroke-width="6"/>
<circle cx="751.5" cy="96.5" r="93.5" stroke="white" stroke-width="6"/>
<circle cx="432.5" cy="415.5" r="93.5" stroke="white" stroke-width="6"/>
<circle cx="751.5" cy="415.5" r="93.5" stroke="white" stroke-width="6"/>
<circle cx="593.5" cy="255.5" r="93.5" stroke="white" stroke-width="6"/>
<path d="M398.079 114.83H410.268C412.321 118.508 415.272 121.459 419.121 123.683C423.055 125.821 427.546 126.891 432.592 126.891C438.494 126.891 443.369 125.522 447.218 122.785C451.067 120.048 452.992 116.712 452.992 112.778C452.992 108.757 451.666 105.721 449.015 103.668C446.363 101.53 442.172 100.119 436.441 99.4343L422.713 97.6381C415.186 96.6117 409.541 94.0884 405.777 90.0683C402.099 86.0482 400.26 80.9162 400.26 74.6722C400.26 67.9151 402.441 62.2698 406.804 57.7365C411.251 53.2032 417.453 50.4662 425.407 49.5253V34.0009H436.441V49.5253C443.968 50.4662 450.127 53.1177 454.916 57.4799C459.706 61.7566 462.999 66.5893 464.796 71.9779H452.607C450.811 68.3855 447.945 65.4774 444.011 63.2535C440.162 61.0296 435.757 59.9176 430.796 59.9176C424.723 59.9176 420.019 61.329 416.683 64.1516C413.433 66.8887 411.807 70.2245 411.807 74.159C411.807 81.5149 416.597 85.7916 426.177 86.9891L440.803 88.9136C448.159 89.8545 453.933 92.3777 458.124 96.4834C462.401 100.589 464.539 105.807 464.539 112.136C464.539 118.466 462.016 124.111 456.969 129.072C452.008 134.033 445.166 136.855 436.441 137.54V152.936H425.407V137.155C417.966 136.043 411.978 133.434 407.445 129.328C402.912 125.137 399.79 120.305 398.079 114.83Z" fill="white"/>
<path d="M567.524 262.846H555.849V252.068H567.524V212.808H601.267C609.479 212.808 616.065 215.032 621.026 219.48C625.987 223.842 628.467 229.958 628.467 237.827C628.467 245.696 625.987 251.854 621.026 256.302C616.065 260.664 609.479 262.846 601.267 262.846H579.071V271.698H611.916V282.476H579.071V298H567.524V282.476H555.849V271.698H567.524V262.846ZM612.558 248.348C615.466 245.867 616.92 242.36 616.92 237.827C616.92 233.294 615.466 229.787 612.558 227.306C609.735 224.826 605.972 223.586 601.267 223.586H579.071V252.068H601.267C605.972 252.068 609.735 250.828 612.558 248.348Z" fill="white"/>
<path d="M766.094 403.034L763.143 412.785H731.966C731.795 414.154 731.709 415.693 731.709 417.404C731.709 419.029 731.795 420.441 731.966 421.638H761.09L758.139 431.389H733.634C735.259 437.547 738.082 442.337 742.102 445.759C746.207 449.18 751.211 450.891 757.113 450.891C765.752 450.891 772.252 446.871 776.614 438.83H788.418C785.681 445.93 781.661 451.532 776.358 455.638C771.055 459.658 764.64 461.668 757.113 461.668C748.559 461.668 741.075 458.931 734.66 453.457C728.245 447.897 724.011 440.541 721.958 431.389H711.566V421.638H720.419C720.248 420.27 720.162 418.858 720.162 417.404C720.162 415.865 720.248 414.325 720.419 412.785H711.566V403.034H721.958C724.182 393.968 728.459 386.74 734.788 381.352C741.118 375.877 748.559 373.14 757.113 373.14C764.64 373.14 771.055 375.193 776.358 379.299C781.661 383.319 785.681 388.879 788.418 395.978H776.614C772.252 387.938 765.752 383.918 757.113 383.918C751.296 383.918 746.336 385.628 742.23 389.05C738.124 392.386 735.302 397.047 733.762 403.034H766.094Z" fill="white"/>
<path d="M432.977 417.532L458.381 374.808H470.697L451.324 407.14H464.411V416.891H445.422L440.162 425.744H464.411V435.495H438.622V460H427.075V435.495H401.287V425.744H425.536L420.147 416.891H401.287V407.14H414.373L395 374.808H407.702L432.977 417.532Z" fill="white"/>
<path d="M718.902 136V125.223C726.343 125.052 730.064 121.588 730.064 114.83V98.5362H718.774V88.7853H730.064V74.8005C730.064 67.9578 732.416 61.9705 737.121 56.8384C741.91 51.7064 748.454 49.1404 756.751 49.1404C763.422 49.1404 768.982 51.1504 773.43 55.1705C777.877 59.1051 780.957 64.0233 782.667 69.9251H770.864C768.041 63.2535 763.208 59.9176 756.366 59.9176C751.661 59.9176 748.026 61.2862 745.46 64.0233C742.894 66.7604 741.611 70.3528 741.611 74.8005V88.7853H765.347V98.5362H741.611V115.344C741.611 120.818 739.943 124.111 736.607 125.223H782.667V136H718.902Z" fill="white"/>
</svg>
