<svg width="202" height="82" viewBox="0 0 202 82" fill="none" xmlns="http://www.w3.org/2000/svg">
<path d="M9.95322 22.2459H5.91689V39.4003H0V0.367188H5.91689V16.008H9.95322V0.367188H15.8701V39.4462H9.95322V22.2459Z" fill="white"/>
<path d="M26.0527 39.8588H24.906C20.1816 39.8588 17.6589 37.2902 17.6589 32.4741V24.6308H23.53V31.465C23.53 33.2539 24.1262 34.2171 25.4564 34.2171C26.8783 34.2171 27.3828 33.2539 27.3828 30.8688V29.9973C27.3828 27.1994 27.1076 26.2361 24.9519 23.4382L21.2366 18.5304C18.7139 15.2738 17.98 12.7511 17.98 8.85241V7.61399C17.98 2.43097 20.5944 0 25.2729 0H26.3737C31.2357 0 33.1621 2.15577 33.1621 6.78837V13.2098H27.4287V7.56812C27.4287 6.23796 27.1535 5.27475 25.7316 5.27475C24.3097 5.27475 23.9886 6.14623 23.9886 8.02679V8.76067C23.9886 10.9623 24.4014 12.1549 26.4196 14.7693L30.1807 19.6312C32.841 23.1172 33.7125 25.0895 33.7125 29.4927V30.7312C33.7125 36.4646 31.2357 39.8588 26.0527 39.8588Z" fill="white"/>
<path d="M48.8947 0.367188V6.05474H41.3266V16.2832H47.2435V22.2001H41.3266V33.4834H49.2158V39.4003H35.4097V0.367188H48.8947Z" fill="white"/>
<path d="M65.2235 32.0615H60.912L60.1323 39.4003H54.8116L59.5819 0.321289H66.5996L71.6908 39.4003H65.9574L65.2235 32.0615ZM64.5814 26.2364L63.0219 11.7881L61.5083 26.2364H64.5814Z" fill="white"/>
<path d="M78.6167 39.4462H72.6998V0.367188H82.332C86.2766 0.367188 88.2489 2.06428 88.2489 6.42168V13.3477C88.2489 16.6042 86.7353 17.8427 85.6803 18.3472C87.0105 18.9435 88.2489 19.9984 88.2489 22.6129V36.3272C88.2489 37.8867 88.5699 38.6206 88.8451 39.2169V39.4921H82.9741C82.6989 39.0793 82.3779 38.3913 82.3779 36.2814V24.4476C82.3779 22.7046 82.0568 21.9707 80.1762 21.9707H78.6626V39.4462H78.6167ZM78.6167 16.4208H80.1762C81.8274 16.4208 82.332 15.3658 82.332 13.6229V8.16465C82.332 6.46755 81.965 5.64194 80.1762 5.64194H78.6167V16.4208Z" fill="white"/>
<path d="M100.22 6.00888V39.4003H94.3492V6.00888H89.3496V0.367188H105.22V6.05474H100.22V6.00888Z" fill="white"/>
<path d="M121.09 32.0615H116.778L115.999 39.4003H110.678L115.448 0.321289H122.466L127.557 39.4003H121.824L121.09 32.0615ZM120.448 26.2364L118.888 11.7881L117.375 26.2364H120.448Z" fill="white"/>
<path d="M133.887 0.367188L138.978 21.3286V0.367188H144.391V39.4462H139.575L133.887 16.9712V39.4462H128.521V0.367188H133.887Z" fill="white"/>
<path d="M146.592 0.367188H155.72C160.811 0.367188 162.371 3.25683 162.371 7.88944V31.6946C162.371 36.4648 160.582 39.4462 155.72 39.4462H146.638V0.367188H146.592ZM152.555 33.7587H153.977C155.766 33.7587 156.27 32.7954 156.27 30.7314V8.71505C156.27 6.46755 155.674 5.68781 154.206 5.68781H152.509V33.7587H152.555Z" fill="white"/>
<path d="M0 41.4648H9.08174C14.173 41.4648 15.7325 44.3545 15.7325 48.9871V72.7923C15.7325 77.5625 13.9437 80.5439 9.08174 80.5439H0V41.4648ZM5.91689 74.9022H7.33878C9.12761 74.9022 9.63215 73.939 9.63215 71.8749V49.8586C9.63215 47.6111 9.03588 46.8313 7.56812 46.8313H5.87103V74.9022H5.91689Z" fill="white"/>
<path d="M31.3733 41.4648V47.1524H23.8052V57.3808H29.7221V63.2977H23.8052V74.5811H31.6944V80.498H17.8424V41.4648H31.3733Z" fill="white"/>
<path d="M41.143 80.9555H39.9963C35.272 80.9555 32.7493 78.3869 32.7493 73.5709V65.7275H38.6203V72.5618C38.6203 74.3506 39.2166 75.3138 40.5467 75.3138C41.9686 75.3138 42.4732 74.3506 42.4732 71.9655V71.094C42.4732 68.2961 42.198 67.3329 40.0422 64.535L36.2811 59.7189C33.7583 56.4623 33.0245 53.9396 33.0245 50.0409V48.8025C33.0245 43.6194 35.6389 41.1885 40.3174 41.1885H41.4182C46.326 41.1885 48.2066 43.3442 48.2066 47.9768V54.3983H42.4732V48.7566C42.4732 47.4264 42.1979 46.4632 40.7761 46.4632C39.3542 46.4632 39.0331 47.3347 39.0331 49.2153V49.9491C39.0331 52.1508 39.4459 53.3433 41.4641 55.9578L45.2252 60.8197C47.8855 64.3056 48.757 66.2779 48.757 70.6812V71.9196C48.8029 77.5613 46.326 80.9555 41.143 80.9555Z" fill="white"/>
<path d="M56.4169 80.5439H50.5V41.4648H56.4169V80.5439Z" fill="white"/>
<path d="M64.1226 81.094C60.6367 81.094 58.4351 77.975 58.4351 73.9387V49.4914C58.4351 45.134 60.1322 41.0977 65.728 41.0977H66.8747C73.2502 41.0977 73.9841 45.2257 73.9841 49.8583V53.8488H68.2048V49.4455C68.2048 47.7026 67.792 46.7852 66.3243 46.7852C65.0858 46.7852 64.4896 47.7484 64.4896 49.4455V72.2875C64.4896 74.1222 65.2234 75.0854 66.416 75.0854C67.9296 75.0854 68.6176 74.0304 68.6176 72.5627V62.7929H65.9573V56.7843H74.2593V80.5436H70.911C70.8651 80.3143 70.4064 78.3878 69.9019 76.6908C69.4891 78.0209 67.4709 81.0482 64.4896 81.0482H64.1226V81.094Z" fill="white"/>
<path d="M81.6897 41.4648L86.781 62.4262V41.4648H92.1934V80.5439H87.3773L81.6897 58.0688V80.5439H76.3232V41.4648H81.6897Z" fill="white"/>
<path d="M107.697 80.9555H106.55C101.826 80.9555 99.3029 78.3869 99.3029 73.5709V65.7275H105.174V72.5618C105.174 74.3506 105.77 75.3138 107.1 75.3138C108.522 75.3138 109.027 74.3506 109.027 71.9655V71.094C109.027 68.2961 108.752 67.3329 106.596 64.535L102.835 59.7189C100.312 56.4623 99.5781 53.9396 99.5781 50.0409V48.8025C99.5781 43.6194 102.193 41.1885 106.871 41.1885H107.972C112.834 41.1885 114.76 43.3442 114.76 47.9768V54.3983H109.027V48.7566C109.027 47.4264 108.752 46.4632 107.33 46.4632C105.908 46.4632 105.587 47.3347 105.587 49.2153V49.9491C105.587 52.1508 105.999 53.3433 108.018 55.9578L111.779 60.8197C114.439 64.3056 115.311 66.2779 115.311 70.6812V71.9196C115.356 77.5613 112.88 80.9555 107.697 80.9555Z" fill="white"/>
<path d="M126.732 72.6085V63.5268H132.557V72.5627C132.557 76.7825 131.181 81.0023 125.447 81.0023H124.117C118.109 81.0023 116.824 76.6907 116.824 72.7461V48.8951C116.824 44.9046 118.567 41.0518 123.934 41.0518H125.31C131.823 41.0518 132.557 45.3633 132.557 49.1703V56.1421H126.732V49.262C126.732 47.5649 126.227 46.6934 124.714 46.6934C123.246 46.6934 122.879 47.5191 122.879 49.262V72.4709C122.879 74.2139 123.475 75.1312 124.759 75.1312C126.227 75.2688 126.732 74.2139 126.732 72.6085Z" fill="white"/>
<path d="M144.436 63.3895H140.4V80.5439H134.483V41.4648H140.4V57.1056H144.436V41.4648H150.353V80.5439H144.436V63.3895Z" fill="white"/>
<path d="M168.654 71.8288C168.654 77.287 166.82 81.0023 161.086 81.0023H160.077C154.39 81.0023 152.417 77.287 152.417 71.8288V50.0877C152.417 44.6753 154.481 41.0977 160.031 41.0977H161.04C166.82 41.0977 168.654 44.6753 168.654 50.0418V71.8288ZM162.6 49.7666C162.6 47.7026 161.912 46.7852 160.536 46.7852C159.022 46.7852 158.426 47.7943 158.426 49.7666V72.2416C158.426 73.9387 158.885 75.223 160.582 75.223C162.141 75.223 162.6 73.8928 162.6 72.2416V49.7666Z" fill="white"/>
<path d="M186.772 71.8288C186.772 77.287 184.937 81.0023 179.204 81.0023H178.195C172.507 81.0023 170.535 77.287 170.535 71.8288V50.0877C170.535 44.6753 172.599 41.0977 178.149 41.0977H179.158C184.937 41.0977 186.772 44.6753 186.772 50.0418V71.8288ZM180.717 49.7666C180.717 47.7026 180.029 46.7852 178.653 46.7852C177.14 46.7852 176.544 47.7943 176.544 49.7666V72.2416C176.544 73.9387 177.002 75.223 178.699 75.223C180.259 75.223 180.717 73.8928 180.717 72.2416V49.7666Z" fill="white"/>
<path d="M194.753 41.4648V74.4894H202V80.5439H188.836V41.4648H194.753Z" fill="white"/>
</svg>
