<svg width="437" height="715" viewBox="0 0 437 715" fill="none" xmlns="http://www.w3.org/2000/svg">
<line x1="217" y1="17" x2="217" y2="350" stroke="white" stroke-width="6"/>
<path d="M42.6055 3.35938C29.6899 3.35938 19.2197 13.8296 19.2197 26.7452L19.2197 107.609C19.2197 120.525 29.6899 130.995 42.6055 130.995H217.244H391.882C404.798 130.995 415.268 120.525 415.268 107.609V26.7452C415.268 13.8296 404.798 3.35938 391.882 3.35938L42.6055 3.35938Z" fill="black" stroke="white" stroke-width="6"/>
<path d="M102.032 38.3432H151.855V48.6788H132.774V97H121.201V48.6788H102.032V38.3432ZM183.158 68.9084L198.97 38.3432H210.631L187.751 83.2192C184.865 88.814 182.421 92.5242 180.419 94.3498C178.417 96.1166 175.295 97 171.055 97H163.546V86.6644H170.083C171.85 86.6644 173.205 86.3405 174.147 85.6927C175.148 85.0449 176.002 83.9553 176.709 82.4241L177.416 80.8341L155.508 38.3432H167.345L183.158 68.9084ZM220.496 38.3432H263.871V97H252.298V48.6788H232.069V66.1699C232.069 69.5267 231.951 72.5008 231.715 75.092C231.539 77.6833 231.038 80.4218 230.214 83.3075C229.448 86.1933 228.388 88.5784 227.034 90.463C225.738 92.3475 223.883 93.9082 221.468 95.1449C219.113 96.3816 216.315 97 213.076 97H207.864V86.5761H211.221C213.282 86.5761 214.961 86.0166 216.256 84.8976C217.611 83.7787 218.553 82.1297 219.083 79.9507C219.672 77.7717 220.055 75.7693 220.231 73.9436C220.408 72.0591 220.496 69.7328 220.496 66.9649V38.3432ZM307.475 38.3432L333.005 97H320.726L314.984 84.0142H288.218L282.476 97H270.638L296.168 38.3432H307.475ZM301.645 53.7141L292.811 73.6786H310.391L301.645 53.7141Z" fill="white"/>
<path d="M152.279 342.339L278.902 341.366L369.126 430.215L370.099 556.838L281.251 647.062L154.627 648.035L64.4032 559.186L63.4304 432.563L152.279 342.339Z" fill="black" stroke="white" stroke-width="6"/>
<path d="M126.531 462.089C132.773 462.089 138.162 463.649 142.697 466.77C147.29 469.833 150.795 474.073 153.209 479.491H140.842C137.249 474.78 132.479 472.424 126.531 472.424C121.172 472.424 116.696 474.338 113.103 478.166C109.57 481.994 107.803 486.794 107.803 492.565C107.803 498.337 109.57 503.136 113.103 506.964C116.696 510.792 121.172 512.706 126.531 512.706C132.538 512.706 137.308 510.351 140.842 505.639H153.209C150.795 511.057 147.29 515.327 142.697 518.448C138.162 521.511 132.773 523.042 126.531 523.042C117.874 523.042 110.659 520.156 104.888 514.385C99.1165 508.555 96.2308 501.281 96.2308 492.565C96.2308 483.849 99.1165 476.605 104.888 470.834C110.659 465.004 117.874 462.089 126.531 462.089ZM158.393 463.237H208.216V473.573H189.135V521.894H177.562V473.573H158.393V463.237ZM265.077 514.208C259.365 520.097 252.062 523.042 243.169 523.042C234.277 523.042 226.974 520.097 221.262 514.208C215.549 508.319 212.693 501.105 212.693 492.565C212.693 483.967 215.549 476.753 221.262 470.922C226.974 465.033 234.277 462.089 243.169 462.089C252.062 462.089 259.365 465.033 265.077 470.922C270.79 476.753 273.646 483.967 273.646 492.565C273.646 501.105 270.79 508.319 265.077 514.208ZM229.654 506.876C233.246 510.763 237.751 512.706 243.169 512.706C248.588 512.706 253.093 510.763 256.685 506.876C260.278 502.93 262.074 498.16 262.074 492.565C262.074 486.912 260.278 482.141 256.685 478.254C253.093 474.368 248.588 472.424 243.169 472.424C237.751 472.424 233.246 474.368 229.654 478.254C226.061 482.141 224.265 486.912 224.265 492.565C224.265 498.16 226.061 502.93 229.654 506.876ZM334.817 521.894H323.245V473.573H295.683V521.894H284.111V463.237H334.817V521.894Z" fill="white"/>
</svg>
