<svg width="831" height="1304" viewBox="0 0 831 1304" fill="none" xmlns="http://www.w3.org/2000/svg">
<path d="M358.403 507.349C358.403 534.357 349.934 555.643 332.997 571.207C352.681 588.144 362.522 610.345 362.522 637.811C362.522 666.192 353.138 689.766 334.37 708.534C315.602 726.845 288.137 736 251.974 736H50.102V409.847H247.854C283.559 409.847 310.796 419.231 329.564 437.999C348.79 456.309 358.403 479.426 358.403 507.349ZM136.618 605.539V665.276H238.928C263.647 665.276 276.006 655.206 276.006 635.064C276.006 615.381 263.647 605.539 238.928 605.539H136.618ZM136.618 480.571V539.621H234.808C259.527 539.621 271.886 529.551 271.886 509.409C271.886 490.183 259.527 480.571 234.808 480.571H136.618Z" fill="#EBFF00"/>
<line x1="806" y1="737.06" x2="477" y2="737.06" stroke="white" stroke-width="4.11983"/>
<path d="M771.951 562.207C794.381 577.771 805.596 599.743 805.596 628.124C805.596 660.167 791.406 686.259 763.025 706.401C735.101 726.084 697.336 735.926 649.729 735.926C553.6 735.926 497.296 698.619 480.816 624.004H572.826C583.354 651.012 609.904 664.516 652.476 664.516C671.244 664.516 686.808 660.854 699.167 653.53C711.527 646.206 717.706 637.05 717.706 626.064C717.706 616.451 714.044 609.127 706.72 604.092C699.396 599.056 689.554 596.539 677.195 596.539H601.665V530.621H674.448C686.808 530.621 696.65 527.875 703.974 522.382C711.756 516.889 715.647 509.565 715.647 500.409C715.647 489.423 709.925 480.497 698.481 473.63C687.037 466.764 671.931 463.331 653.162 463.331C614.711 463.331 589.076 474.546 576.259 496.976H484.249C492.947 464.018 511.257 438.383 539.18 420.073C567.562 401.305 604.869 391.92 651.103 391.92C675.364 391.92 698.252 395.354 719.766 402.22C741.739 408.629 760.965 420.302 777.444 437.239C793.923 454.176 802.163 475.004 802.163 499.723C802.163 526.273 792.092 547.101 771.951 562.207Z" fill="#EBFF00"/>
<path d="M363 737.06H47" stroke="white" stroke-width="4.11983"/>
<line x1="365.94" y1="739" x2="365.94" y2="418" stroke="white" stroke-width="4.11983"/>
<line x1="478.94" y1="739" x2="478.94" y2="420" stroke="white" stroke-width="4.11983"/>
<circle cx="361" cy="496" r="80" stroke="white" stroke-width="6"/>
<circle cx="480" cy="497" r="80" stroke="white" stroke-width="6"/>
</svg>
