<svg width="898" height="627" viewBox="0 0 898 627" fill="none" xmlns="http://www.w3.org/2000/svg">
<path d="M358.946 623.907H196.806L230.075 519.51L196.806 438.058H701.963L664.488 519.51L701.963 623.907H539.441M358.946 623.907V578.783H539.441V623.907M358.946 623.907H539.441M18.6514 392.994H875.616V134.498H18.6514V392.994Z" stroke="white" stroke-width="6" stroke-linecap="round" stroke-linejoin="round"/>
<circle cx="137.428" cy="517.007" r="25.7945" stroke="white" stroke-width="6"/>
<circle cx="28.7945" cy="28.7945" r="25.7945" transform="matrix(-1 0 0 1 788.578 488.212)" stroke="white" stroke-width="6"/>
<circle cx="70.35" cy="516.68" r="19.5775" stroke="white" stroke-width="6"/>
<circle cx="22.5775" cy="22.5775" r="19.5775" transform="matrix(-1 0 0 1 849.438 494.102)" stroke="white" stroke-width="6"/>
<circle cx="16.0333" cy="516.68" r="13.0333" stroke="white" stroke-width="6"/>
<circle cx="881.178" cy="516.68" r="13.0333" stroke="white" stroke-width="6"/>
<path d="M393.962 594.995H383.439V591.32H398.517V594.995L388.591 612.177H384.036L393.962 594.995ZM408.381 612.586C406.287 612.586 404.538 612.052 403.135 610.984C401.732 609.916 400.831 608.46 400.434 606.617H404.58C405.208 608.146 406.454 608.91 408.318 608.91C409.491 608.91 410.423 608.575 411.114 607.905C411.826 607.235 412.182 606.387 412.182 605.361C412.182 604.335 411.826 603.497 411.114 602.848C410.423 602.199 409.491 601.874 408.318 601.874C406.831 601.874 405.638 602.345 404.737 603.288H401.062L402.224 591.32H415.449V594.995H405.711L405.365 598.764C406.287 598.387 407.407 598.199 408.726 598.199C410.758 598.199 412.527 598.838 414.035 600.115C415.543 601.371 416.297 603.12 416.297 605.361C416.297 607.371 415.564 609.078 414.098 610.481C412.653 611.884 410.747 612.586 408.381 612.586ZM427.628 612.586C425.22 612.586 423.272 611.978 421.785 610.764C420.319 609.549 419.586 608.041 419.586 606.24C419.586 604.23 420.487 602.691 422.288 601.623C420.654 600.597 419.838 599.099 419.838 597.131C419.838 595.372 420.539 593.895 421.942 592.702C423.366 591.508 425.262 590.911 427.628 590.911C429.973 590.911 431.848 591.508 433.251 592.702C434.675 593.895 435.387 595.372 435.387 597.131C435.387 599.099 434.57 600.597 432.937 601.623C434.738 602.691 435.638 604.23 435.638 606.24C435.638 608.041 434.895 609.549 433.408 610.764C431.942 611.978 430.015 612.586 427.628 612.586ZM427.628 608.91C428.801 608.91 429.743 608.659 430.455 608.156C431.167 607.654 431.523 606.994 431.523 606.178C431.523 605.361 431.167 604.712 430.455 604.23C429.764 603.727 428.822 603.476 427.628 603.476C426.434 603.476 425.481 603.727 424.769 604.23C424.057 604.733 423.701 605.382 423.701 606.178C423.701 606.994 424.057 607.654 424.769 608.156C425.481 608.659 426.434 608.91 427.628 608.91ZM431.272 597.162C431.272 596.387 430.937 595.759 430.267 595.277C429.617 594.796 428.738 594.555 427.628 594.555C426.518 594.555 425.628 594.796 424.958 595.277C424.288 595.759 423.953 596.387 423.953 597.162C423.953 597.979 424.277 598.628 424.927 599.11C425.597 599.57 426.497 599.801 427.628 599.801C428.759 599.801 429.649 599.57 430.298 599.11C430.947 598.628 431.272 597.979 431.272 597.162ZM446.572 612.586C444.478 612.586 442.73 612.052 441.327 610.984C439.924 609.916 439.023 608.46 438.625 606.617H442.772C443.4 608.146 444.646 608.91 446.51 608.91C447.682 608.91 448.614 608.575 449.305 607.905C450.017 607.235 450.373 606.387 450.373 605.361C450.373 604.335 450.017 603.497 449.305 602.848C448.614 602.199 447.682 601.874 446.51 601.874C445.023 601.874 443.829 602.345 442.929 603.288H439.253L440.416 591.32H453.64V594.995H443.902L443.557 598.764C444.478 598.387 445.599 598.199 446.918 598.199C448.949 598.199 450.719 598.838 452.227 600.115C453.734 601.371 454.488 603.12 454.488 605.361C454.488 607.371 453.755 609.078 452.29 610.481C450.845 611.884 448.939 612.586 446.572 612.586ZM464.758 605.078C462.643 605.078 460.853 604.408 459.387 603.068C457.921 601.727 457.188 600.042 457.188 598.01C457.188 596.042 457.91 594.367 459.355 592.984C460.821 591.602 462.695 590.911 464.978 590.911C467.554 590.911 469.596 591.759 471.103 593.456C472.611 595.131 473.365 597.749 473.365 601.309C473.365 602.795 473.208 604.188 472.894 605.486C472.601 606.785 472.14 607.978 471.512 609.067C470.905 610.156 470.046 611.015 468.936 611.643C467.826 612.271 466.538 612.586 465.072 612.586C463.313 612.586 461.774 612.114 460.455 611.172C459.135 610.23 458.204 608.868 457.659 607.088H461.9C462.549 608.303 463.565 608.91 464.947 608.91C466.182 608.91 467.166 608.418 467.899 607.434C468.653 606.45 469.104 605.141 469.25 603.507C468.119 604.555 466.622 605.078 464.758 605.078ZM465.167 594.586C464.036 594.586 463.104 594.911 462.371 595.56C461.659 596.188 461.303 597.005 461.303 598.01C461.303 599.016 461.659 599.843 462.371 600.492C463.104 601.12 464.036 601.434 465.167 601.434C466.276 601.434 467.187 601.12 467.899 600.492C468.611 599.864 468.967 599.036 468.967 598.01C468.967 596.984 468.611 596.157 467.899 595.529C467.187 594.901 466.276 594.586 465.167 594.586ZM486.716 599.11H490.831V604.104H494.161V607.78H490.831V612.177H486.716V607.78H476.005V604.104L485.994 591.32H490.768L480.748 604.104H486.716V599.11ZM503.625 605.078C501.51 605.078 499.719 604.408 498.253 603.068C496.787 601.727 496.054 600.042 496.054 598.01C496.054 596.042 496.777 594.367 498.222 592.984C499.688 591.602 501.562 590.911 503.845 590.911C506.42 590.911 508.462 591.759 509.97 593.456C511.478 595.131 512.232 597.749 512.232 601.309C512.232 602.795 512.075 604.188 511.76 605.486C511.467 606.785 511.007 607.978 510.378 609.067C509.771 610.156 508.912 611.015 507.803 611.643C506.693 612.271 505.405 612.586 503.939 612.586C502.18 612.586 500.641 612.114 499.321 611.172C498.002 610.23 497.07 608.868 496.526 607.088H500.766C501.415 608.303 502.431 608.91 503.813 608.91C505.049 608.91 506.033 608.418 506.766 607.434C507.52 606.45 507.97 605.141 508.117 603.507C506.986 604.555 505.488 605.078 503.625 605.078ZM504.033 594.586C502.902 594.586 501.97 594.911 501.237 595.56C500.525 596.188 500.169 597.005 500.169 598.01C500.169 599.016 500.525 599.843 501.237 600.492C501.97 601.12 502.902 601.434 504.033 601.434C505.143 601.434 506.054 601.12 506.766 600.492C507.478 599.864 507.834 599.036 507.834 598.01C507.834 596.984 507.478 596.157 506.766 595.529C506.054 594.901 505.143 594.586 504.033 594.586Z" fill="white"/>
<rect x="180.349" y="3.09424" width="535.334" height="77.0317" stroke="white" stroke-width="6"/>
<path d="M108.547 246.936C118.281 246.936 126.069 249.272 131.909 253.944C137.75 258.519 140.67 264.944 140.67 273.218V316H128.113V308.699C122.467 314.831 114.68 317.898 104.751 317.898C96.5742 317.898 89.955 316 84.8932 312.203C79.9288 308.407 77.4466 302.858 77.4466 295.558C77.4466 287.965 80.1722 282.465 85.6233 279.058C91.1718 275.554 98.2777 273.802 106.941 273.802H128.113C128.113 263.678 121.591 258.617 108.547 258.617C104.264 258.617 100.371 259.493 96.8662 261.245C93.4593 262.9 91.0744 265.285 89.7116 268.4H75.8405C77.69 261.683 81.6323 256.427 87.6675 252.63C93.7026 248.834 100.663 246.936 108.547 246.936ZM128.113 289.133V284.753H106.795C95.6008 284.753 90.0037 288.355 90.0037 295.558C90.0037 302.664 95.3575 306.217 106.065 306.217C112.782 306.217 118.135 304.659 122.126 301.544C126.117 298.332 128.113 294.195 128.113 289.133ZM87.5215 211.017H101.247L121.98 238.029H108.255L87.5215 211.017Z" fill="white"/>
<path d="M244.547 246.936C254.281 246.936 262.069 249.272 267.909 253.944C273.75 258.519 276.67 264.944 276.67 273.218V316H264.113V308.699C258.467 314.831 250.68 317.898 240.751 317.898C232.574 317.898 225.955 316 220.893 312.203C215.929 308.407 213.447 302.858 213.447 295.558C213.447 287.965 216.172 282.465 221.623 279.058C227.172 275.554 234.278 273.802 242.941 273.802H264.113C264.113 263.678 257.591 258.617 244.547 258.617C240.264 258.617 236.371 259.493 232.866 261.245C229.459 262.9 227.074 265.285 225.712 268.4H211.84C213.69 261.683 217.632 256.427 223.667 252.63C229.703 248.834 236.663 246.936 244.547 246.936ZM264.113 289.133V284.753H242.795C231.601 284.753 226.004 288.355 226.004 295.558C226.004 302.664 231.357 306.217 242.065 306.217C248.782 306.217 254.135 304.659 258.126 301.544C262.117 298.332 264.113 294.195 264.113 289.133ZM255.206 211.017H268.931L248.198 238.029H234.472L255.206 211.017Z" fill="white"/>
<path d="M380.547 246.936C390.281 246.936 398.069 249.272 403.909 253.944C409.75 258.519 412.67 264.944 412.67 273.218V316H400.113V308.699C394.467 314.831 386.68 317.898 376.751 317.898C368.574 317.898 361.955 316 356.893 312.203C351.929 308.407 349.447 302.858 349.447 295.558C349.447 287.965 352.172 282.465 357.623 279.058C363.172 275.554 370.278 273.802 378.941 273.802H400.113C400.113 263.678 393.591 258.617 380.547 258.617C376.264 258.617 372.371 259.493 368.866 261.245C365.459 262.9 363.074 265.285 361.712 268.4H347.84C349.69 261.683 353.632 256.427 359.667 252.63C365.703 248.834 372.663 246.936 380.547 246.936ZM400.113 289.133V284.753H378.795C367.601 284.753 362.004 288.355 362.004 295.558C362.004 302.664 367.357 306.217 378.065 306.217C384.782 306.217 390.135 304.659 394.126 301.544C398.117 298.332 400.113 294.195 400.113 289.133ZM353.097 238.029L374.853 211.017H388.724L410.48 238.029H397.047L381.861 219.923L366.676 238.029H353.097Z" fill="white"/>
<path d="M517.547 246.936C527.281 246.936 535.069 249.272 540.909 253.944C546.75 258.519 549.67 264.944 549.67 273.218V316H537.113V308.699C531.467 314.831 523.68 317.898 513.751 317.898C505.574 317.898 498.955 316 493.893 312.203C488.929 308.407 486.447 302.858 486.447 295.558C486.447 287.965 489.172 282.465 494.623 279.058C500.172 275.554 507.278 273.802 515.941 273.802H537.113C537.113 263.678 530.591 258.617 517.547 258.617C513.264 258.617 509.371 259.493 505.866 261.245C502.459 262.9 500.074 265.285 498.712 268.4H484.84C486.69 261.683 490.632 256.427 496.667 252.63C502.703 248.834 509.663 246.936 517.547 246.936ZM537.113 289.133V284.753H515.795C504.601 284.753 499.004 288.355 499.004 295.558C499.004 302.664 504.357 306.217 515.065 306.217C521.782 306.217 527.135 304.659 531.126 301.544C535.117 298.332 537.113 294.195 537.113 289.133ZM529.958 226.932C534.144 226.932 536.237 222.552 536.237 213.791H546.75C546.75 221.286 545.241 227.175 542.223 231.458C539.303 235.644 535.166 237.737 529.812 237.737C526.989 237.737 524.118 236.666 521.198 234.525C518.375 232.286 515.746 230.096 513.313 227.954C510.977 225.715 508.981 224.596 507.326 224.596C503.141 224.596 501.048 228.976 501.048 237.737H490.535C490.535 230.339 492.044 224.499 495.061 220.216C498.079 215.932 502.216 213.791 507.472 213.791C510.393 213.791 513.313 214.91 516.233 217.149C519.153 219.291 521.782 221.481 524.118 223.72C526.551 225.861 528.498 226.932 529.958 226.932Z" fill="white"/>
<path d="M648.547 244.936C658.281 244.936 666.069 247.272 671.909 251.944C677.75 256.519 680.67 262.944 680.67 271.218V314H668.113V306.699C662.467 312.831 654.68 315.898 644.751 315.898C636.574 315.898 629.955 314 624.893 310.203C619.929 306.407 617.447 300.858 617.447 293.558C617.447 285.965 620.172 280.465 625.623 277.058C631.172 273.554 638.278 271.802 646.941 271.802H668.113C668.113 261.678 661.591 256.617 648.547 256.617C644.264 256.617 640.371 257.493 636.866 259.245C633.459 260.9 631.074 263.285 629.712 266.4H615.84C617.69 259.683 621.632 254.427 627.667 250.63C633.703 246.834 640.663 244.936 648.547 244.936ZM668.113 287.133V282.753H646.795C635.601 282.753 630.004 286.355 630.004 293.558C630.004 300.664 635.357 304.217 646.065 304.217C652.782 304.217 658.135 302.659 662.126 299.544C666.117 296.332 668.113 292.195 668.113 287.133ZM656.14 231.503V217.047H670.157V231.503H656.14ZM629.42 231.503V217.047H643.437V231.503H629.42Z" fill="white"/>
<path d="M783.547 244.936C793.281 244.936 801.069 247.272 806.909 251.944C812.75 256.519 815.67 262.944 815.67 271.218V314H803.113V306.699C797.467 312.831 789.68 315.898 779.751 315.898C771.574 315.898 764.955 314 759.893 310.203C754.929 306.407 752.447 300.858 752.447 293.558C752.447 285.965 755.172 280.465 760.623 277.058C766.172 273.554 773.278 271.802 781.941 271.802H803.113C803.113 261.678 796.591 256.617 783.547 256.617C779.264 256.617 775.371 257.493 771.866 259.245C768.459 260.9 766.074 263.285 764.712 266.4H750.84C752.69 259.683 756.632 254.427 762.667 250.63C768.703 246.834 775.663 244.936 783.547 244.936ZM803.113 287.133V282.753H781.795C770.601 282.753 765.004 286.355 765.004 293.558C765.004 300.664 770.357 304.217 781.065 304.217C787.782 304.217 793.135 302.659 797.126 299.544C801.117 296.332 803.113 292.195 803.113 287.133ZM770.552 232.379C766.756 228.485 764.858 223.813 764.858 218.362C764.858 212.91 766.756 208.287 770.552 204.49C774.446 200.597 779.118 198.65 784.569 198.65C790.02 198.65 794.644 200.597 798.44 204.49C802.334 208.287 804.281 212.91 804.281 218.362C804.281 223.813 802.334 228.485 798.44 232.379C794.644 236.175 790.02 238.073 784.569 238.073C779.118 238.073 774.446 236.175 770.552 232.379ZM777.707 211.645C775.955 213.397 775.079 215.636 775.079 218.362C775.079 221.087 775.955 223.375 777.707 225.224C779.556 226.976 781.844 227.852 784.569 227.852C787.295 227.852 789.534 226.976 791.286 225.224C793.135 223.375 794.06 221.087 794.06 218.362C794.06 215.636 793.135 213.397 791.286 211.645C789.534 209.795 787.295 208.871 784.569 208.871C781.844 208.871 779.556 209.795 777.707 211.645Z" fill="white"/>
</svg>
