<svg width="636" height="1886" viewBox="0 0 636 1886" fill="none" xmlns="http://www.w3.org/2000/svg">
<path d="M360 571C432.667 571 490.667 588 534 622C578 656 600 703.333 600 764V1059H474V1023C441.333 1055.67 390 1072 320 1072C261.333 1072 215.333 1058 182 1030C149.333 1002 133 962.333 133 911C133 856.333 154 817.667 196 795C238.667 771.667 292.333 760 357 760H474C474 734 463.667 714.667 443 702C422.333 689.333 395.667 683 363 683C305 683 268 702 252 740H122C134.667 684.667 163 642.667 207 614C251.667 585.333 302.667 571 360 571ZM474 874V854H357C291.667 854 259 873.333 259 912C259 929.333 266.333 943.667 281 955C296.333 965.667 317.667 971 345 971C381 971 411.333 962.667 436 946C461.333 928.667 474 904.667 474 874Z" fill="#EBFF00"/>
<circle cx="258" cy="1057" r="128" stroke="white" stroke-width="6"/>
<circle cx="131" cy="737.305" r="128" transform="rotate(90 131 737.305)" stroke="white" stroke-width="6"/>
<line x1="599" y1="1060" x2="131" y2="1060" stroke="white" stroke-width="6"/>
<path d="M130 1057L130 609" stroke="white" stroke-width="6"/>
</svg>
