<svg width="1397" height="686" viewBox="0 0 1397 686" fill="none" xmlns="http://www.w3.org/2000/svg">
<path fill-rule="evenodd" clip-rule="evenodd" d="M474 472.5V497.5H919.5V472.5H546.5H474ZM474 558.5L486.5 539H904L919.5 558.5H474Z" fill="black"/>
<path fill-rule="evenodd" clip-rule="evenodd" d="M474 497.5V472.5H546.5V117H250L243.312 497.5L242.801 539L242.4 571.5L243.312 587.75V604H599.5H810H1151.5V587.75V497.5V117H849H546.5V472.5H919.5V497.5H474ZM486.5 539L474 558.5H919.5L904 539H486.5Z" fill="black"/>
<path d="M181 683V633.5V65.5V44H150V107.5V497.5V539V668V683H181Z" fill="black"/>
<path d="M1255 683V104.352V44H1224.5V65.5V644.5V683H1255Z" fill="black"/>
<path d="M1169 644.5V604V497.5V104.352L1151.5 117V497.5V587.75V604V644.5H1169Z" fill="black"/>
<path d="M1169 604L1224.5 644.5V65.5L1169 104.352V497.5V604Z" fill="black"/>
<path d="M181 633.5L227 604L227.52 539L227.853 497.5L231 104.352L181 65.5V633.5Z" fill="black"/>
<path d="M243.312 644.5V604V587.75L242.4 571.5L242.801 539L243.312 497.5L250 117L231 104.352L227.853 497.5L227.52 539L227 604V644.5H243.312Z" fill="black"/>
<path d="M63.5 3L3 44H150H181H1224.5H1255H1393.5L1339 3H793.5H63.5Z" fill="black"/>
<path d="M231 104.352H1169L1224.5 65.5V44H181V65.5L231 104.352Z" fill="black"/>
<path d="M231 104.352L250 117H546.5H849H1151.5L1169 104.352H231Z" fill="black"/>
<path d="M150 107.5L3 44M150 107.5V44M150 107.5V497.5V539V668V683H181V633.5M3 44L63.5 3H793.5H1339L1393.5 44M3 44H150M1393.5 44L1255 104.352M1393.5 44H1255M1255 104.352V683H1224.5V644.5M1255 104.352V44M1224.5 644.5L1169 604M1224.5 644.5V65.5M1169 604V644.5H1151.5V604M1169 604V497.5V104.352M1151.5 604H810H599.5H243.312M1151.5 604V587.75M243.312 604V644.5H227V604M243.312 604V587.75M227 604L181 633.5M227 604L227.52 539L227.853 497.5L231 104.352M181 633.5V65.5M1255 44H1224.5M150 44H181M250 117L231 104.352M250 117H546.5M250 117L243.312 497.5L242.801 539L242.4 571.5L243.312 587.75M1151.5 117L1169 104.352M1151.5 117H849M1151.5 117V497.5V587.75M231 104.352H1169M231 104.352L181 65.5M1169 104.352L1224.5 65.5M474 472.5V497.5H919.5V472.5M474 472.5H919.5M474 472.5H546.5M919.5 472.5H546.5M546.5 117V472.5M546.5 117H849M849 117V468.5M243.312 587.75H1151.5M181 44H1224.5M181 44V65.5M1224.5 44V65.5M474 558.5L486.5 539H904L919.5 558.5H474Z" stroke="white" stroke-width="6" stroke-linecap="round" stroke-linejoin="round"/>
<rect x="153" y="215" width="1096" height="132" fill="black"/>
</svg>
