<svg width="312" height="312" viewBox="0 0 312 312" fill="none" xmlns="http://www.w3.org/2000/svg">
<g clip-path="url(#clip0_229_2)">
<rect width="312" height="312" fill="black"/>
<path d="M155.491 59.3372C183.733 59.3372 206.275 65.9443 223.117 79.1585C240.217 92.3727 248.768 110.769 248.768 134.347V249H199.797V235.008C187.101 247.704 167.151 254.052 139.945 254.052C117.144 254.052 99.2658 248.611 86.3107 237.729C73.6147 226.847 67.2667 211.43 67.2667 191.479C67.2667 170.233 75.4284 155.205 91.7519 146.396C108.334 137.327 129.192 132.793 154.325 132.793H199.797C199.797 122.688 195.781 115.174 187.749 110.251C179.717 105.328 169.353 102.866 156.657 102.866C134.115 102.866 119.735 110.251 113.516 125.02H62.9915C67.9145 103.514 78.9263 87.1907 96.027 76.0493C113.387 64.9079 133.208 59.3372 155.491 59.3372ZM199.797 177.099V169.326H154.325C128.933 169.326 116.237 176.84 116.237 191.868C116.237 198.605 119.087 204.175 124.787 208.58C130.747 212.726 139.038 214.799 149.661 214.799C163.653 214.799 175.442 211.56 185.029 205.082C194.875 198.346 199.797 189.018 199.797 177.099Z" fill="#EBFF00"/>
</g>
<defs>
<clipPath id="clip0_229_2">
<rect width="312" height="312" fill="white"/>
</clipPath>
</defs>
</svg>
