<svg width="537" height="64" viewBox="0 0 537 64" fill="none" xmlns="http://www.w3.org/2000/svg">
<path d="M7.85593 0.86451H11.8905C7.14507 5.95578 4.77235 11.268 4.77235 16.8011C4.77235 19.5293 5.45439 22.1518 6.81846 24.6686H3.15851C2.54372 23.6888 2.0442 22.488 1.65995 21.0663C1.2757 19.6446 1.08358 18.1844 1.08358 16.6859C1.08358 13.5735 1.70798 10.6532 2.95678 7.92504C4.2248 5.17768 5.85785 2.82417 7.85593 0.86451ZM10.7211 0.720417H12.6231V20H10.7211V0.720417ZM17.5331 6.97403H19.4351V20H17.5331V6.97403ZM17.3025 3.54463V1.0086H19.6368V3.54463H17.3025ZM25.2069 18.3573C24.0542 17.0125 23.4778 15.389 23.4778 13.487C23.4778 11.585 24.0542 9.96155 25.2069 8.61669C26.3789 7.27182 27.9927 6.59939 30.0484 6.59939C31.0667 6.59939 31.9889 6.79152 32.815 7.17576C33.6411 7.56001 34.2848 8.04032 34.7459 8.61669V6.97403H36.6479V19.366C36.6479 21.4601 36.0619 23.1316 34.8899 24.3804C33.7372 25.6292 32.1426 26.2536 30.1061 26.2536C28.7612 26.2536 27.522 25.9174 26.3885 25.245C25.255 24.5725 24.4096 23.6215 23.8525 22.3919H25.9274C26.7727 23.8136 28.1656 24.5245 30.1061 24.5245C31.5854 24.5245 32.7286 24.0442 33.5355 23.0836C34.3424 22.123 34.7459 20.8453 34.7459 19.2507V18.3573C34.2848 18.9337 33.6411 19.414 32.815 19.7983C31.9889 20.1825 31.0667 20.3746 30.0484 20.3746C27.9927 20.3746 26.3789 19.7022 25.2069 18.3573ZM26.6767 9.85588C25.8121 10.8549 25.3798 12.0653 25.3798 13.487C25.3798 14.9087 25.8121 16.1287 26.6767 17.147C27.5604 18.146 28.6844 18.6455 30.0484 18.6455C31.3933 18.6455 32.5172 18.2036 33.4202 17.3199C34.3424 16.4169 34.8035 15.1393 34.8035 13.487C34.8035 11.8348 34.3424 10.5667 33.4202 9.68297C32.5172 8.77999 31.3933 8.3285 30.0484 8.3285C28.6844 8.3285 27.5604 8.83763 26.6767 9.85588ZM47.9945 6.59939C49.762 6.59939 51.1357 7.14694 52.1155 8.24205C53.1146 9.31794 53.6141 10.7108 53.6141 12.4207V20H51.7121V12.4207C51.7121 11.2104 51.3951 10.2305 50.7611 9.48124C50.1271 8.71275 49.2049 8.3285 47.9945 8.3285C46.7649 8.3285 45.689 8.76078 44.7668 9.62534C43.8446 10.4899 43.3835 11.6426 43.3835 13.0836V20H41.4815V0.720417H43.3835V8.61669C44.4402 7.27182 45.9772 6.59939 47.9945 6.59939ZM59.3238 3.05472H61.2258V6.97403H65.8079V8.70314H61.2258V15.7349C61.2258 16.6571 61.4467 17.3103 61.8886 17.6945C62.3305 18.0788 63.0413 18.2709 64.0212 18.2709H65.8079V20H63.9924C62.3593 20 61.1681 19.683 60.4189 19.049C59.6888 18.415 59.3238 17.4448 59.3238 16.1383V8.70314H56.6148V6.97403H59.3238V3.05472ZM69.9134 23.0836H68.4437L70.2881 20H68.9912V17.3487H71.6425V20.2305L69.9134 23.0836ZM81.7797 6.74349H84.2581V8.61669C85.1803 7.29104 86.7365 6.62821 88.9267 6.62821H89.7048V8.99133H88.9267C87.4857 8.99133 86.3426 9.414 85.4973 10.2593C84.6711 11.1047 84.2581 12.2286 84.2581 13.6311V20H81.7797V6.74349ZM98.6673 18.0692C100.32 18.0692 101.492 17.4736 102.183 16.2824H104.863C104.402 17.5504 103.615 18.5495 102.5 19.2795C101.405 20.0096 100.127 20.3746 98.6673 20.3746C96.6692 20.3746 95.0074 19.7118 93.6817 18.3862C92.3753 17.0605 91.7221 15.3794 91.7221 13.3429C91.7221 11.3448 92.3561 9.68297 93.6241 8.35732C94.9113 7.03167 96.5444 6.36885 98.5232 6.36885C100.387 6.36885 101.933 7.03167 103.163 8.35732C104.412 9.66376 105.036 11.2776 105.036 13.1988C105.036 13.756 105.017 14.121 104.979 14.2939H94.2869C94.4406 15.389 94.9209 16.292 95.7278 17.0029C96.554 17.7137 97.5338 18.0692 98.6673 18.0692ZM98.5232 8.67433C97.3897 8.67433 96.4387 8.99133 95.6702 9.62534C94.9209 10.2401 94.4694 11.0759 94.3157 12.1325H102.443C102.289 11.0759 101.866 10.2401 101.175 9.62534C100.483 8.99133 99.5991 8.67433 98.5232 8.67433ZM119.086 6.74349H121.564V19.366C121.564 21.4794 120.959 23.1508 119.749 24.3804C118.558 25.6292 116.896 26.2536 114.763 26.2536C113.303 26.2536 111.977 25.879 110.786 25.1297C109.595 24.3804 108.74 23.3333 108.221 21.9885H110.93C111.66 23.2949 112.938 23.9481 114.763 23.9481C116.127 23.9481 117.184 23.5255 117.933 22.6801C118.702 21.8348 119.086 20.7109 119.086 19.3084V18.5591C117.991 19.7695 116.502 20.3746 114.619 20.3746C112.525 20.3746 110.882 19.6926 109.691 18.3285C108.5 16.9645 107.904 15.3122 107.904 13.3717C107.904 11.4313 108.5 9.77904 109.691 8.41496C110.882 7.05088 112.525 6.36885 114.619 6.36885C116.502 6.36885 117.991 6.97403 119.086 8.18441V6.74349ZM117.847 16.8588C118.73 16.0327 119.172 14.8703 119.172 13.3717C119.172 11.8732 118.73 10.7204 117.847 9.91352C116.982 9.08739 115.935 8.67433 114.706 8.67433C113.457 8.67433 112.419 9.13542 111.593 10.0576C110.786 10.9606 110.383 12.0653 110.383 13.3717C110.383 14.6782 110.786 15.7925 111.593 16.7147C112.419 17.6177 113.457 18.0692 114.706 18.0692C115.935 18.0692 116.982 17.6657 117.847 16.8588ZM131.55 20.3746C129.802 20.3746 128.419 19.8367 127.401 18.7608C126.382 17.6849 125.873 16.2824 125.873 14.5533V6.74349H128.352V14.3516C128.352 15.4851 128.64 16.3881 129.216 17.0605C129.812 17.7329 130.676 18.0692 131.81 18.0692C132.924 18.0692 133.885 17.6657 134.692 16.8588C135.518 16.0519 135.931 14.976 135.931 13.6311V6.74349H138.409V20H135.931V18.5591C134.913 19.7695 133.452 20.3746 131.55 20.3746ZM143.019 0.720417H145.497V20H143.019V0.720417ZM155.414 6.36885C157.335 6.36885 158.872 6.82994 160.025 7.75213C161.177 8.65511 161.754 9.92313 161.754 11.5562V20H159.275V18.5591C158.161 19.7695 156.624 20.3746 154.664 20.3746C153.051 20.3746 151.744 20 150.745 19.2507C149.765 18.5014 149.275 17.4063 149.275 15.9654C149.275 14.4668 149.813 13.3813 150.889 12.7089C151.984 12.0173 153.387 11.6715 155.097 11.6715H159.275C159.275 9.67337 157.988 8.67433 155.414 8.67433C154.568 8.67433 153.8 8.84724 153.108 9.19306C152.436 9.51967 151.965 9.99037 151.696 10.6052H148.958C149.323 9.27951 150.101 8.24205 151.293 7.49277C152.484 6.74349 153.857 6.36885 155.414 6.36885ZM159.275 14.6974V13.8328H155.068C152.858 13.8328 151.754 14.5437 151.754 15.9654C151.754 17.3679 152.81 18.0692 154.924 18.0692C156.249 18.0692 157.306 17.7618 158.094 17.147C158.882 16.513 159.275 15.6964 159.275 14.6974ZM166.068 6.74349H168.547V8.61669C169.469 7.29104 171.025 6.62821 173.215 6.62821H173.993V8.99133H173.215C171.774 8.99133 170.631 9.414 169.786 10.2593C168.96 11.1047 168.547 12.2286 168.547 13.6311V20H166.068V6.74349ZM177.928 23.9481H175.421L178.677 20H176.689L177.582 15.706H181.876L180.867 20.4323L177.928 23.9481ZM210.659 20V12.3631C210.659 11.3064 210.39 10.4803 209.852 9.8847C209.314 9.28912 208.507 8.99133 207.432 8.99133C206.432 8.99133 205.568 9.36597 204.838 10.1153C204.127 10.8645 203.772 11.854 203.772 13.0836V20H200.717V12.3631C200.717 11.3064 200.448 10.4803 199.91 9.8847C199.372 9.28912 198.565 8.99133 197.489 8.99133C196.49 8.99133 195.635 9.36597 194.924 10.1153C194.213 10.8645 193.858 11.8348 193.858 13.0259V20H190.803V6.54176H193.858V7.78095C194.799 6.70506 196.163 6.16712 197.95 6.16712C200.217 6.16712 201.85 6.926 202.849 8.44378C204.06 6.926 205.731 6.16712 207.864 6.16712C209.631 6.16712 211.043 6.69545 212.1 7.75213C213.176 8.80881 213.714 10.2113 213.714 11.9596V20H210.659ZM224.189 17.5504C225.649 17.5504 226.706 17.0605 227.359 16.0807H230.673C230.173 17.4063 229.338 18.4534 228.166 19.2219C226.994 19.9904 225.668 20.3746 224.189 20.3746C222.133 20.3746 220.423 19.7022 219.059 18.3573C217.695 17.0125 217.013 15.3122 217.013 13.2565C217.013 11.2392 217.676 9.55809 219.001 8.21323C220.327 6.84915 222.008 6.16712 224.045 6.16712C226.024 6.16712 227.657 6.83955 228.944 8.18441C230.231 9.51006 230.875 11.1623 230.875 13.1412C230.875 13.756 230.855 14.1594 230.817 14.3516H220.183C220.356 15.3122 220.807 16.0903 221.538 16.6859C222.287 17.2622 223.171 17.5504 224.189 17.5504ZM224.045 8.90487C223.046 8.90487 222.191 9.18345 221.48 9.74061C220.788 10.2786 220.375 10.999 220.241 11.902H227.647C227.493 10.9798 227.09 10.2497 226.437 9.71179C225.803 9.17385 225.005 8.90487 224.045 8.90487ZM244.684 0.720417H247.739V20H244.684V18.7608C243.666 19.8367 242.254 20.3746 240.448 20.3746C238.354 20.3746 236.682 19.683 235.434 18.2997C234.204 16.8972 233.589 15.2257 233.589 13.2853C233.589 11.3256 234.204 9.65416 235.434 8.27087C236.682 6.86837 238.354 6.16712 240.448 6.16712C242.254 6.16712 243.666 6.70506 244.684 7.78095V0.720417ZM243.56 16.4553C244.387 15.706 244.8 14.6494 244.8 13.2853C244.8 11.9212 244.387 10.8645 243.56 10.1153C242.754 9.36597 241.783 8.99133 240.65 8.99133C239.478 8.99133 238.517 9.414 237.768 10.2593C237.019 11.0855 236.644 12.0941 236.644 13.2853C236.644 14.4572 237.019 15.4659 237.768 16.3112C238.517 17.1374 239.478 17.5504 240.65 17.5504C241.783 17.5504 242.754 17.1854 243.56 16.4553ZM252.185 6.54176H255.239V20H252.185V6.54176ZM251.983 3.91927V0.432232H255.412V3.91927H251.983ZM265.231 20.3746C263.464 20.3746 262.042 19.8463 260.966 18.7896C259.91 17.7329 259.381 16.3208 259.381 14.5533V6.54176H262.436V14.121C262.436 15.1777 262.715 16.0134 263.272 16.6282C263.829 17.243 264.645 17.5504 265.721 17.5504C266.74 17.5504 267.614 17.1758 268.344 16.4265C269.074 15.6772 269.439 14.6878 269.439 13.4582V6.54176H272.494V20H269.439V18.7608C268.517 19.8367 267.114 20.3746 265.231 20.3746ZM296.721 20V12.3631C296.721 11.3064 296.452 10.4803 295.914 9.8847C295.376 9.28912 294.569 8.99133 293.493 8.99133C292.494 8.99133 291.629 9.36597 290.899 10.1153C290.189 10.8645 289.833 11.854 289.833 13.0836V20H286.778V12.3631C286.778 11.3064 286.509 10.4803 285.971 9.8847C285.433 9.28912 284.627 8.99133 283.551 8.99133C282.552 8.99133 281.697 9.36597 280.986 10.1153C280.275 10.8645 279.92 11.8348 279.92 13.0259V20H276.865V6.54176H279.92V7.78095C280.861 6.70506 282.225 6.16712 284.012 6.16712C286.279 6.16712 287.912 6.926 288.911 8.44378C290.121 6.926 291.793 6.16712 293.925 6.16712C295.693 6.16712 297.105 6.69545 298.162 7.75213C299.238 8.80881 299.775 10.2113 299.775 11.9596V20H296.721ZM304.515 23.9481H302.008L305.265 20H303.276L304.17 15.706H308.464L307.455 20.4323L304.515 23.9481ZM327.391 5.93657C329.37 5.93657 330.907 6.54176 332.002 7.75213C333.097 8.96251 333.644 10.4323 333.644 12.1614C333.644 14.4476 332.886 16.3881 331.368 17.9827C329.85 19.5773 327.958 20.3746 325.691 20.3746C323.558 20.3746 322.04 19.8559 321.137 18.8184L320.907 20H317.276L321.368 0.720417H324.999L323.616 7.17576C324.557 6.34963 325.815 5.93657 327.391 5.93657ZM325.691 17.0317C326.786 17.0317 327.775 16.6378 328.659 15.8501C329.562 15.0624 330.013 13.9673 330.013 12.5648C330.013 11.5466 329.667 10.7493 328.976 10.1729C328.303 9.57731 327.506 9.27951 326.584 9.27951C325.489 9.27951 324.499 9.67337 323.616 10.4611C322.732 11.2488 322.29 12.3439 322.29 13.7464C322.29 14.7646 322.626 15.5716 323.299 16.1671C323.971 16.7435 324.768 17.0317 325.691 17.0317ZM344.106 5.93657C346.104 5.93657 347.727 6.53215 348.976 7.72331C350.244 8.91448 350.878 10.413 350.878 12.219C350.878 14.5053 350.052 16.4361 348.4 18.0115C346.766 19.5869 344.836 20.3746 342.607 20.3746C340.59 20.3746 338.957 19.7791 337.708 18.5879C336.459 17.3775 335.835 15.8693 335.835 14.0634C335.835 11.7771 336.651 9.85588 338.284 8.29969C339.936 6.72427 341.877 5.93657 344.106 5.93657ZM343.76 9.27951C342.607 9.27951 341.598 9.70219 340.734 10.5475C339.888 11.3737 339.466 12.4303 339.466 13.7176C339.466 14.6974 339.783 15.4947 340.417 16.1095C341.07 16.7243 341.915 17.0317 342.953 17.0317C344.106 17.0317 345.105 16.609 345.95 15.7637C346.814 14.9183 347.247 13.8617 347.247 12.5936C347.247 11.6138 346.92 10.8165 346.267 10.2017C345.633 9.58691 344.797 9.27951 343.76 9.27951ZM356.856 0.720417H360.487L356.395 20H352.764L356.856 0.720417ZM374.854 0.720417H378.485L374.393 20H370.762L370.935 19.0202C369.859 19.9232 368.591 20.3746 367.131 20.3746C365.19 20.3746 363.673 19.7695 362.578 18.5591C361.482 17.3487 360.935 15.879 360.935 14.1498C360.935 11.8636 361.694 9.92313 363.212 8.3285C364.729 6.73388 366.622 5.93657 368.889 5.93657C371.002 5.93657 372.51 6.50333 373.413 7.63686L374.854 0.720417ZM367.995 17.0317C369.071 17.0317 370.051 16.6378 370.935 15.8501C371.838 15.0624 372.289 13.9673 372.289 12.5648C372.289 11.5466 371.953 10.7493 371.281 10.1729C370.608 9.57731 369.811 9.27951 368.889 9.27951C367.794 9.27951 366.795 9.67337 365.892 10.4611C365.008 11.2488 364.566 12.3439 364.566 13.7464C364.566 14.7646 364.902 15.5716 365.575 16.1671C366.266 16.7435 367.073 17.0317 367.995 17.0317ZM379.263 23.9481H376.756L380.013 20H378.024L378.918 15.706H383.212L382.203 20.4323L379.263 23.9481ZM402.773 6.36885C404.002 6.36885 404.963 6.75309 405.655 7.52159C406.346 8.29008 406.692 9.26991 406.692 10.4611V20H404.214V10.7493C404.214 10.1345 404.06 9.63494 403.753 9.2507C403.445 8.86645 402.994 8.67433 402.398 8.67433C401.764 8.67433 401.236 8.89527 400.813 9.33715C400.391 9.75982 400.179 10.3266 400.179 11.0374V20H397.701V10.7493C397.701 10.1345 397.537 9.63494 397.211 9.2507C396.903 8.86645 396.452 8.67433 395.856 8.67433C395.222 8.67433 394.694 8.88566 394.271 9.30833C393.868 9.731 393.666 10.3074 393.666 11.0374V20H391.188V6.74349H393.666V7.78095C394.339 6.83955 395.261 6.36885 396.433 6.36885C397.739 6.36885 398.681 6.926 399.257 8.04032C400.025 6.926 401.197 6.36885 402.773 6.36885ZM421.998 18.3862C420.615 19.7118 418.867 20.3746 416.753 20.3746C414.64 20.3746 412.892 19.7118 411.508 18.3862C410.125 17.0605 409.433 15.389 409.433 13.3717C409.433 11.3544 410.125 9.68297 411.508 8.35732C412.892 7.03167 414.64 6.36885 416.753 6.36885C418.867 6.36885 420.615 7.03167 421.998 8.35732C423.381 9.68297 424.073 11.3544 424.073 13.3717C424.073 15.389 423.381 17.0605 421.998 18.3862ZM413.266 16.7147C414.188 17.6177 415.351 18.0692 416.753 18.0692C418.156 18.0692 419.308 17.6177 420.211 16.7147C421.134 15.8117 421.595 14.6974 421.595 13.3717C421.595 12.0269 421.143 10.9126 420.24 10.0288C419.337 9.12582 418.175 8.67433 416.753 8.67433C415.331 8.67433 414.169 9.12582 413.266 10.0288C412.363 10.9126 411.912 12.0269 411.912 13.3717C411.912 14.6974 412.363 15.8117 413.266 16.7147ZM435.373 6.36885C437.179 6.36885 438.63 6.89718 439.725 7.95386C440.82 8.99133 441.368 10.4034 441.368 12.1902V20H438.889V12.3919C438.889 11.2007 438.563 10.2882 437.909 9.65415C437.256 9.00094 436.334 8.67433 435.143 8.67433C433.875 8.67433 432.808 9.097 431.944 9.94234C431.079 10.7877 430.647 11.8444 430.647 13.1124V20H428.169V6.74349H430.647V8.18441C431.685 6.97403 433.26 6.36885 435.373 6.36885ZM457.74 18.3862C456.357 19.7118 454.608 20.3746 452.495 20.3746C450.382 20.3746 448.633 19.7118 447.25 18.3862C445.867 17.0605 445.175 15.389 445.175 13.3717C445.175 11.3544 445.867 9.68297 447.25 8.35732C448.633 7.03167 450.382 6.36885 452.495 6.36885C454.608 6.36885 456.357 7.03167 457.74 8.35732C459.123 9.68297 459.815 11.3544 459.815 13.3717C459.815 15.389 459.123 17.0605 457.74 18.3862ZM449.008 16.7147C449.93 17.6177 451.092 18.0692 452.495 18.0692C453.897 18.0692 455.05 17.6177 455.953 16.7147C456.875 15.8117 457.336 14.6974 457.336 13.3717C457.336 12.0269 456.885 10.9126 455.982 10.0288C455.079 9.12582 453.917 8.67433 452.495 8.67433C451.073 8.67433 449.911 9.12582 449.008 10.0288C448.105 10.9126 447.653 12.0269 447.653 13.3717C447.653 14.6974 448.105 15.8117 449.008 16.7147ZM464.227 23.9481H461.72L464.977 20H462.988L463.882 15.706H468.176L467.167 20.4323L464.227 23.9481ZM482.298 0.720417H484.2L480.108 20H478.206L482.298 0.720417ZM487.784 6.97403H489.686L486.92 20H485.018L487.784 6.97403ZM488.274 3.54463L488.822 1.0086H491.156L490.608 3.54463H488.274ZM504.997 6.97403H506.899L504.277 19.366C503.815 21.4986 502.893 23.1796 501.51 24.4092C500.127 25.6388 498.417 26.2536 496.38 26.2536C495.016 26.2536 493.825 25.9174 492.807 25.245C491.808 24.5725 491.145 23.6215 490.818 22.3919H492.893C493.47 23.8136 494.709 24.5245 496.611 24.5245C498.09 24.5245 499.329 24.0442 500.328 23.0836C501.327 22.123 502.01 20.8453 502.375 19.2507L502.547 18.5014C501.299 19.7502 499.8 20.3746 498.052 20.3746C496.188 20.3746 494.728 19.8079 493.671 18.6743C492.634 17.5216 492.115 16.1383 492.115 14.5245C492.115 12.3727 492.807 10.5187 494.19 8.96251C495.593 7.3871 497.379 6.59939 499.55 6.59939C500.742 6.59939 501.769 6.85876 502.634 7.37749C503.518 7.87701 504.152 8.49181 504.536 9.22188L504.997 6.97403ZM494.017 14.4092C494.017 15.7541 494.401 16.8011 495.17 17.5504C495.958 18.2805 496.957 18.6455 498.167 18.6455C499.704 18.6455 501.01 18.0403 502.086 16.83C503.181 15.6004 503.729 14.1787 503.729 12.5648C503.729 11.2392 503.335 10.2017 502.547 9.45243C501.76 8.70314 500.77 8.3285 499.579 8.3285C498.042 8.3285 496.726 8.9433 495.631 10.1729C494.555 11.4025 494.017 12.8146 494.017 14.4092ZM517.785 6.59939C519.245 6.59939 520.445 7.01246 521.387 7.83859C522.328 8.66472 522.799 9.82707 522.799 11.3256C522.799 11.8251 522.741 12.3343 522.626 12.853L521.099 20H519.197L520.753 12.6801C520.849 12.1998 520.897 11.7963 520.897 11.4697C520.897 10.5283 520.628 9.76943 520.09 9.19306C519.552 8.61669 518.726 8.3285 517.612 8.3285C516.44 8.3285 515.345 8.72236 514.326 9.51006C513.327 10.2786 512.693 11.3256 512.424 12.6513L510.868 20H508.966L513.058 0.720417H514.96L513.318 8.44378C514.586 7.21419 516.075 6.59939 517.785 6.59939ZM530.411 3.05472H532.313L531.477 6.97403H536.059L535.684 8.70314H531.102L529.69 15.4179C529.556 15.9558 529.488 16.3785 529.488 16.6859C529.488 17.7426 530.276 18.2709 531.852 18.2709H533.638L533.293 20H531.477C528.845 20 527.529 19.0394 527.529 17.1181C527.529 16.8684 527.577 16.4745 527.673 15.9366L529.2 8.70314H526.491L526.866 6.97403H529.575L530.411 3.05472ZM3.24497 45.974H5.14699L2.38041 59H0.478392L3.24497 45.974ZM3.73488 42.5446L4.28244 40.0086H6.61673L6.06918 42.5446H3.73488ZM12.0715 42.0547H13.9736L13.1378 45.974H17.72L17.3453 47.7031H12.7632L11.3511 54.4179C11.2166 54.9558 11.1493 55.3785 11.1493 55.6859C11.1493 56.7426 11.9371 57.2709 13.5125 57.2709H15.2992L14.9534 59H13.1378C10.5057 59 9.18969 58.0394 9.18969 56.1181C9.18969 55.8684 9.23772 55.4745 9.33378 54.9366L10.8612 47.7031H8.15222L8.52686 45.974H11.2358L12.0715 42.0547ZM25.8601 45.5994C26.8591 45.5994 27.7717 45.7435 28.5978 46.0317C29.424 46.3006 30.1252 46.781 30.7016 47.4726C31.2972 48.1642 31.595 49.0192 31.595 50.0374C31.595 50.3833 31.5469 50.7963 31.4509 51.2766L29.8082 59H27.9062L28.252 57.5014C26.8687 58.7502 25.2549 59.3746 23.4105 59.3746C21.9696 59.3746 20.8168 59.0192 19.9523 58.3084C19.0877 57.5783 18.6554 56.6369 18.6554 55.4841C18.6554 53.9279 19.1838 52.7752 20.2405 52.0259C21.3163 51.2766 22.6324 50.902 24.1886 50.902H29.6065C29.6833 50.6138 29.7217 50.3256 29.7217 50.0374C29.7217 49.1345 29.3375 48.462 28.569 48.0201C27.8197 47.5591 26.8303 47.3285 25.6007 47.3285C23.5834 47.3285 22.1233 48.0586 21.2203 49.5187H19.1742C19.6929 48.2891 20.5479 47.3285 21.739 46.6369C22.9302 45.9452 24.3039 45.5994 25.8601 45.5994ZM29.0589 53.6109L29.2607 52.6311H24.0733C23.0359 52.6311 22.1905 52.8617 21.5373 53.3228C20.8841 53.7838 20.5575 54.4563 20.5575 55.34C20.5575 56.0317 20.8264 56.5889 21.3644 57.0115C21.9215 57.4342 22.69 57.6455 23.6699 57.6455C24.9763 57.6455 26.1483 57.2421 27.1857 56.4352C28.2232 55.609 28.8476 54.6676 29.0589 53.6109ZM38.4535 39.7204H40.3556L36.2633 59H34.3613L38.4535 39.7204ZM43.9399 45.974H45.8419L43.0753 59H41.1733L43.9399 45.974ZM44.4298 42.5446L44.9773 40.0086H47.3116L46.7641 42.5446H44.4298ZM61.6425 49.4611H59.5964C59.289 48.8271 58.7991 48.3179 58.1267 47.9337C57.4734 47.5302 56.6953 47.3285 55.7924 47.3285C54.2938 47.3285 52.997 47.9241 51.9019 49.1153C50.826 50.2872 50.288 51.6801 50.288 53.2939C50.288 54.5235 50.6723 55.561 51.4408 56.4063C52.2285 57.2325 53.2467 57.6455 54.4955 57.6455C56.3015 57.6455 57.6752 56.9347 58.6166 55.513H60.6627C60.0479 56.7618 59.1833 57.7224 58.069 58.3948C56.9547 59.048 55.7347 59.3746 54.4091 59.3746C52.6223 59.3746 51.1718 58.8175 50.0575 57.7032C48.9432 56.5696 48.386 55.1479 48.386 53.438C48.386 51.2286 49.1353 49.3746 50.6339 47.8761C52.1516 46.3583 53.9384 45.5994 55.9941 45.5994C57.3774 45.5994 58.5685 45.9548 59.5676 46.6657C60.5858 47.3573 61.2775 48.2891 61.6425 49.4611ZM63.9485 62.9481H61.4412L64.6977 59H62.7093L63.6026 54.706H67.8966L66.8879 59.4323L63.9485 62.9481ZM79.7921 45.7435H82.2993L79.4751 59H76.9967L79.7921 45.7435ZM80.2244 42.7175L80.8872 39.7204H83.7691L83.1062 42.7175H80.2244ZM88.7258 42.1124H91.2042L90.4261 45.7435H94.6913L94.2014 47.9337H89.9362L88.6106 54.3026C88.5145 54.6484 88.4665 55.0038 88.4665 55.3689C88.4665 56.3295 89.1293 56.8098 90.455 56.8098H92.357L91.8959 59H89.965C87.2369 59 85.8728 57.9914 85.8728 55.9741C85.8728 55.6859 85.9208 55.3016 86.0169 54.8213L87.4578 47.9337H85.0371L85.4982 45.7435H87.9477L88.7258 42.1124ZM102.834 45.3688C104.486 45.3688 105.908 45.7531 107.099 46.5216C108.31 47.2709 108.915 48.4236 108.915 49.9798C108.915 50.3256 108.867 50.7387 108.771 51.219L107.128 59H104.621L104.909 57.6743C103.622 58.8079 102.104 59.3746 100.356 59.3746C98.8763 59.3746 97.6852 59 96.7822 58.2507C95.8984 57.5014 95.4565 56.5408 95.4565 55.3689C95.4565 53.7935 96.0041 52.6215 97.0992 51.853C98.2135 51.0653 99.568 50.6715 101.163 50.6715H106.379C106.436 50.4409 106.465 50.2104 106.465 49.9798C106.465 49.1921 106.1 48.6157 105.37 48.2507C104.659 47.8664 103.727 47.6743 102.575 47.6743C100.577 47.6743 99.1837 48.3179 98.396 49.6052H95.86C96.3595 48.2795 97.2241 47.242 98.4537 46.4928C99.7025 45.7435 101.163 45.3688 102.834 45.3688ZM105.745 53.6974L105.918 52.8328H101.134C100.212 52.8328 99.4431 53.0346 98.8283 53.438C98.2327 53.8223 97.9349 54.3794 97.9349 55.1095C97.9349 55.7051 98.1943 56.1854 98.713 56.5504C99.2318 56.8962 99.9426 57.0692 100.846 57.0692C102.037 57.0692 103.103 56.7426 104.044 56.0893C104.986 55.4169 105.553 54.6196 105.745 53.6974ZM115.535 39.7204H118.013L113.921 59H111.442L115.535 39.7204ZM121.388 45.7435H123.895L121.071 59H118.592L121.388 45.7435ZM121.82 42.7175L122.483 39.7204H125.365L124.702 42.7175H121.82ZM139.889 49.6052H137.295C136.988 49.0096 136.527 48.5389 135.912 48.1931C135.297 47.8472 134.586 47.6743 133.78 47.6743C132.377 47.6743 131.176 48.2027 130.177 49.2593C129.197 50.2968 128.707 51.584 128.707 53.121C128.707 54.2353 129.063 55.1767 129.774 55.9452C130.504 56.6945 131.436 57.0692 132.569 57.0692C134.221 57.0692 135.48 56.4255 136.344 55.1383H139.053C138.4 56.464 137.478 57.5014 136.287 58.2507C135.096 59 133.799 59.3746 132.396 59.3746C130.571 59.3746 129.082 58.7983 127.929 57.6455C126.796 56.4928 126.229 55.0519 126.229 53.3228C126.229 51.0941 126.998 49.2113 128.535 47.6743C130.091 46.1373 131.916 45.3688 134.01 45.3688C135.451 45.3688 136.7 45.7627 137.756 46.5504C138.832 47.3189 139.543 48.3372 139.889 49.6052ZM142.13 62.9481H139.623L142.879 59H140.891L141.784 54.706H146.078L145.069 59.4323L142.13 62.9481ZM174.861 59L176.417 51.6225C176.513 51.1422 176.562 50.7867 176.562 50.5562C176.562 49.7877 176.312 49.1729 175.812 48.7118C175.313 48.2315 174.592 47.9913 173.651 47.9913C172.652 47.9913 171.768 48.3372 171 49.0288C170.25 49.7204 169.751 50.6426 169.501 51.7954L167.974 59H164.919L166.475 51.6225C166.571 51.1422 166.619 50.7867 166.619 50.5562C166.619 49.7877 166.369 49.1729 165.87 48.7118C165.37 48.2315 164.65 47.9913 163.708 47.9913C162.748 47.9913 161.883 48.3083 161.115 48.9423C160.346 49.5763 159.847 50.4601 159.616 51.5936L158.06 59H155.005L157.858 45.5418H160.884L160.654 46.6945C161.038 46.291 161.585 45.9356 162.296 45.6282C163.026 45.3208 163.785 45.1671 164.573 45.1671C166.763 45.1671 168.262 46.0125 169.069 47.7031C169.626 46.9731 170.375 46.3679 171.317 45.8876C172.258 45.4073 173.315 45.1671 174.487 45.1671C176.062 45.1671 177.32 45.6282 178.262 46.5504C179.203 47.4534 179.674 48.6061 179.674 50.0086C179.674 50.3544 179.626 50.8348 179.53 51.4496L177.916 59H174.861ZM196.316 53.3516H185.624C185.624 54.3314 185.951 55.1095 186.604 55.6859C187.277 56.2622 188.131 56.5504 189.169 56.5504C190.61 56.5504 191.724 56.0605 192.512 55.0807H195.826C195.134 56.4255 194.193 57.4822 193.002 58.2507C191.83 59 190.485 59.3746 188.967 59.3746C187.065 59.3746 185.519 58.7887 184.327 57.6167C183.136 56.4448 182.541 54.975 182.541 53.2075C182.541 50.9404 183.319 49.0384 184.875 47.5014C186.431 45.9452 188.295 45.1671 190.466 45.1671C192.349 45.1671 193.857 45.7051 194.99 46.781C196.143 47.8568 196.719 49.2497 196.719 50.9596C196.719 51.805 196.585 52.6023 196.316 53.3516ZM190.293 47.9049C189.332 47.9049 188.458 48.1835 187.67 48.7406C186.883 49.2978 186.354 50.0182 186.085 50.902H193.549C193.569 50.8251 193.578 50.7099 193.578 50.5562C193.578 49.7108 193.28 49.0576 192.685 48.5965C192.089 48.1354 191.292 47.9049 190.293 47.9049ZM213.007 39.7204H216.062L211.97 59H208.915L209.117 57.8473C207.983 58.8655 206.639 59.3746 205.082 59.3746C203.161 59.3746 201.663 58.7791 200.587 57.5879C199.511 56.3967 198.973 54.9558 198.973 53.2651C198.973 51.0365 199.713 49.1345 201.192 47.5591C202.671 45.9644 204.525 45.1671 206.754 45.1671C207.772 45.1671 208.694 45.3496 209.52 45.7147C210.366 46.0797 211 46.5696 211.422 47.1844L213.007 39.7204ZM202.028 52.9769C202.028 54.1105 202.383 54.9942 203.094 55.6282C203.805 56.243 204.669 56.5504 205.688 56.5504C206.917 56.5504 208.012 56.0893 208.973 55.1671C209.933 54.2449 210.414 53.0442 210.414 51.5648C210.414 50.4313 210.058 49.5571 209.348 48.9423C208.637 48.3083 207.772 47.9913 206.754 47.9913C205.524 47.9913 204.429 48.4524 203.469 49.3746C202.508 50.2968 202.028 51.4976 202.028 52.9769ZM219.24 45.5418H222.266L219.441 59H216.387L219.24 45.5418ZM219.614 42.9193L220.335 39.4322H223.764L223.044 42.9193H219.614ZM229.837 59.3746C228.396 59.3746 227.176 58.9616 226.177 58.1354C225.197 57.2901 224.707 56.0989 224.707 54.5619C224.707 54.0624 224.774 53.4957 224.909 52.8617L226.436 45.5418H229.491L227.964 52.8328C227.887 53.121 227.848 53.4765 227.848 53.8991C227.848 55.6667 228.809 56.5504 230.73 56.5504C231.691 56.5504 232.575 56.2238 233.381 55.5706C234.208 54.9174 234.726 54.024 234.938 52.8905L236.494 45.5418H239.549L236.696 59H233.67L233.9 57.8184C232.863 58.8559 231.508 59.3746 229.837 59.3746ZM260.923 59L262.479 51.6225C262.575 51.1422 262.623 50.7867 262.623 50.5562C262.623 49.7877 262.373 49.1729 261.874 48.7118C261.374 48.2315 260.654 47.9913 259.712 47.9913C258.713 47.9913 257.83 48.3372 257.061 49.0288C256.312 49.7204 255.812 50.6426 255.562 51.7954L254.035 59H250.98L252.537 51.6225C252.633 51.1422 252.681 50.7867 252.681 50.5562C252.681 49.7877 252.431 49.1729 251.931 48.7118C251.432 48.2315 250.711 47.9913 249.77 47.9913C248.809 47.9913 247.945 48.3083 247.176 48.9423C246.408 49.5763 245.908 50.4601 245.678 51.5936L244.122 59H241.067L243.92 45.5418H246.946L246.715 46.6945C247.099 46.291 247.647 45.9356 248.358 45.6282C249.088 45.3208 249.847 45.1671 250.635 45.1671C252.825 45.1671 254.323 46.0125 255.13 47.7031C255.687 46.9731 256.437 46.3679 257.378 45.8876C258.319 45.4073 259.376 45.1671 260.548 45.1671C262.124 45.1671 263.382 45.6282 264.323 46.5504C265.265 47.4534 265.735 48.6061 265.735 50.0086C265.735 50.3544 265.687 50.8348 265.591 51.4496L263.977 59H260.923ZM277.355 45.5418H280.381L277.557 59H274.502L277.355 45.5418ZM277.73 42.9193L278.45 39.4322H281.88L281.159 42.9193H277.73ZM286.627 42.17H289.681L288.961 45.5418H293.168L292.621 48.2219H288.413L287.145 54.1297C287.049 54.4179 287.001 54.7445 287.001 55.1095C287.001 55.9164 287.558 56.3199 288.673 56.3199H290.892L290.344 59H288.096C286.694 59 285.628 58.731 284.897 58.1931C284.187 57.6359 283.831 56.8578 283.831 55.8588C283.831 55.609 283.879 55.2152 283.975 54.6772L285.359 48.2219H282.88L283.457 45.5418H285.906L286.627 42.17ZM301.532 45.1671C303.222 45.1671 304.673 45.561 305.883 46.3487C307.113 47.1172 307.728 48.2987 307.728 49.8934C307.728 50.2007 307.68 50.6234 307.583 51.1614L305.912 59H302.886L303.088 57.8473C301.877 58.8655 300.446 59.3746 298.794 59.3746C297.257 59.3746 296.046 59 295.163 58.2507C294.279 57.5014 293.837 56.5024 293.837 55.2536C293.837 53.6782 294.413 52.4966 295.566 51.7089C296.719 50.9212 298.102 50.5274 299.716 50.5274H304.673C304.711 50.2584 304.73 50.1047 304.73 50.0663C304.73 48.683 303.559 47.9913 301.215 47.9913C299.332 47.9913 298.054 48.5677 297.382 49.7204H294.212C294.673 48.3372 295.576 47.2324 296.921 46.4063C298.266 45.5802 299.802 45.1671 301.532 45.1671ZM303.981 53.8127L304.154 52.9769H299.745C298.9 52.9769 298.208 53.1498 297.67 53.4957C297.151 53.8415 296.892 54.341 296.892 54.9942C296.892 55.5514 297.122 55.9933 297.583 56.3199C298.064 56.6273 298.727 56.781 299.572 56.781C300.648 56.781 301.599 56.5024 302.425 55.9452C303.27 55.3881 303.789 54.6772 303.981 53.8127ZM314.138 39.7204H317.192L313.1 59H310.045L314.138 39.7204ZM320.386 45.5418H323.412L320.588 59H317.533L320.386 45.5418ZM320.761 42.9193L321.481 39.4322H324.91L324.19 42.9193H320.761ZM339.657 49.7204H336.487C335.892 48.5677 334.835 47.9913 333.317 47.9913C332.03 47.9913 330.925 48.462 330.003 49.4034C329.081 50.3448 328.62 51.5168 328.62 52.9193C328.62 53.9375 328.946 54.8021 329.6 55.513C330.272 56.2046 331.117 56.5504 332.136 56.5504C333.538 56.5504 334.701 55.9741 335.623 54.8213H338.908C338.255 56.2046 337.304 57.3093 336.055 58.1354C334.806 58.9616 333.433 59.3746 331.934 59.3746C330.051 59.3746 328.514 58.7887 327.323 57.6167C326.151 56.4255 325.565 54.9558 325.565 53.2075C325.565 50.9212 326.353 49.0096 327.928 47.4726C329.523 45.9356 331.406 45.1671 333.577 45.1671C335.056 45.1671 336.353 45.5898 337.467 46.4351C338.581 47.2613 339.312 48.3564 339.657 49.7204ZM341.805 62.9481H339.298L342.554 59H340.566L341.459 54.706H345.753L344.745 59.4323L341.805 62.9481ZM364.68 44.9366C366.659 44.9366 368.196 45.5418 369.291 46.7521C370.386 47.9625 370.934 49.4323 370.934 51.1614C370.934 53.4476 370.175 55.3881 368.657 56.9827C367.14 58.5773 365.247 59.3746 362.98 59.3746C360.848 59.3746 359.33 58.8559 358.427 57.8184L358.196 59H354.565L358.657 39.7204H362.288L360.905 46.1758C361.847 45.3496 363.105 44.9366 364.68 44.9366ZM362.98 56.0317C364.075 56.0317 365.065 55.6378 365.948 54.8501C366.851 54.0624 367.303 52.9673 367.303 51.5648C367.303 50.5466 366.957 49.7493 366.265 49.1729C365.593 48.5773 364.796 48.2795 363.873 48.2795C362.778 48.2795 361.789 48.6734 360.905 49.4611C360.021 50.2488 359.58 51.3439 359.58 52.7464C359.58 53.7646 359.916 54.5716 360.588 55.1671C361.261 55.7435 362.058 56.0317 362.98 56.0317ZM381.395 44.9366C383.393 44.9366 385.017 45.5321 386.265 46.7233C387.533 47.9145 388.167 49.413 388.167 51.219C388.167 53.5053 387.341 55.4361 385.689 57.0115C384.056 58.5869 382.125 59.3746 379.897 59.3746C377.879 59.3746 376.246 58.7791 374.997 57.5879C373.749 56.3775 373.124 54.8693 373.124 53.0634C373.124 50.7771 373.941 48.8559 375.574 47.2997C377.226 45.7243 379.167 44.9366 381.395 44.9366ZM381.049 48.2795C379.897 48.2795 378.888 48.7022 378.023 49.5475C377.178 50.3737 376.755 51.4303 376.755 52.7176C376.755 53.6974 377.072 54.4947 377.706 55.1095C378.36 55.7243 379.205 56.0317 380.242 56.0317C381.395 56.0317 382.394 55.609 383.24 54.7637C384.104 53.9183 384.536 52.8617 384.536 51.5936C384.536 50.6138 384.21 49.8165 383.557 49.2017C382.923 48.5869 382.087 48.2795 381.049 48.2795ZM394.146 39.7204H397.777L393.685 59H390.054L394.146 39.7204ZM412.144 39.7204H415.775L411.683 59H408.052L408.224 58.0202C407.149 58.9232 405.881 59.3746 404.42 59.3746C402.48 59.3746 400.962 58.7695 399.867 57.5591C398.772 56.3487 398.224 54.879 398.224 53.1498C398.224 50.8636 398.983 48.9231 400.501 47.3285C402.019 45.7339 403.911 44.9366 406.178 44.9366C408.292 44.9366 409.8 45.5033 410.703 46.6369L412.144 39.7204ZM405.285 56.0317C406.361 56.0317 407.341 55.6378 408.224 54.8501C409.127 54.0624 409.579 52.9673 409.579 51.5648C409.579 50.5466 409.243 49.7493 408.57 49.1729C407.898 48.5773 407.101 48.2795 406.178 48.2795C405.083 48.2795 404.084 48.6734 403.181 49.4611C402.297 50.2488 401.856 51.3439 401.856 52.7464C401.856 53.7646 402.192 54.5716 402.864 55.1671C403.556 55.7435 404.363 56.0317 405.285 56.0317ZM425.14 43.0922L425.976 39.144H429.953L429.117 43.0922H425.14ZM424.823 45.3112H428.454L425.572 59H421.941L424.823 45.3112ZM434.374 42.2276H438.005L437.342 45.3112H441.492L440.829 48.4812H436.679L435.498 53.9856C435.44 54.2546 435.411 54.4755 435.411 54.6484C435.411 55.4361 435.843 55.83 436.708 55.83H439.273L438.61 59H436.016C434.575 59 433.48 58.7118 432.731 58.1354C431.982 57.5399 431.607 56.7329 431.607 55.7147C431.607 55.4265 431.655 55.0423 431.751 54.5619L433.048 48.4812H430.541L431.204 45.3112H433.711L434.374 42.2276ZM450.247 44.9366C451.976 44.9366 453.465 45.34 454.714 46.1469C455.963 46.9539 456.587 48.1835 456.587 49.8357C456.587 50.1431 456.539 50.5658 456.443 51.1037L454.772 59H451.14L451.313 58.0202C450.141 58.9232 448.797 59.3746 447.279 59.3746C445.684 59.3746 444.435 58.9904 443.532 58.2219C442.649 57.4534 442.207 56.4255 442.207 55.1383C442.207 53.5629 442.802 52.3813 443.993 51.5936C445.185 50.7867 446.606 50.3833 448.259 50.3833H452.956C452.994 50.2296 453.014 50.1239 453.014 50.0663C453.014 48.7982 451.976 48.1642 449.901 48.1642C449.017 48.1642 448.268 48.3179 447.653 48.6253C447.058 48.9327 446.626 49.3266 446.357 49.8069H442.61C443.071 48.3468 443.993 47.1748 445.377 46.291C446.76 45.3881 448.383 44.9366 450.247 44.9366ZM452.207 53.9279L452.38 53.0922H448.316C447.605 53.0922 447.01 53.2555 446.529 53.5821C446.068 53.8895 445.838 54.3218 445.838 54.879C445.838 55.3785 446.049 55.7723 446.472 56.0605C446.894 56.3295 447.49 56.464 448.259 56.464C449.238 56.464 450.093 56.243 450.823 55.8011C451.573 55.34 452.034 54.7156 452.207 53.9279ZM462.759 39.7204H466.39L462.297 59H458.666L462.759 39.7204ZM469.69 43.0922L470.526 39.144H474.503L473.667 43.0922H469.69ZM469.373 45.3112H473.004L470.123 59H466.491L469.373 45.3112ZM489.472 49.8069H485.754C485.178 48.7886 484.217 48.2795 482.872 48.2795C481.7 48.2795 480.692 48.7022 479.846 49.5475C479.02 50.3737 478.607 51.4399 478.607 52.7464C478.607 53.6686 478.905 54.4467 479.501 55.0807C480.096 55.7147 480.855 56.0317 481.777 56.0317C482.949 56.0317 483.996 55.5226 484.918 54.5043H488.867C488.213 55.9452 487.214 57.1172 485.869 58.0202C484.544 58.9232 483.084 59.3746 481.489 59.3746C479.568 59.3746 478.002 58.7791 476.792 57.5879C475.581 56.3775 474.976 54.879 474.976 53.0922C474.976 50.7867 475.783 48.8559 477.397 47.2997C479.011 45.7243 480.932 44.9366 483.16 44.9366C484.717 44.9366 486.071 45.3881 487.224 46.291C488.377 47.1748 489.126 48.3468 489.472 49.8069ZM491.965 63.6686H487.93C492.675 58.6734 495.048 53.3612 495.048 47.732C495.048 45.0038 494.366 42.3813 493.002 39.8645H496.662C497.277 40.8443 497.776 42.0451 498.161 43.4668C498.545 44.8885 498.737 46.3487 498.737 47.8472C498.737 50.9596 498.103 53.8895 496.835 56.6369C495.586 59.365 493.963 61.7089 491.965 63.6686Z" fill="#EBFF00"/>
</svg>
